M48
; DRILL file {KiCad 6.0.4-6f826c9f35~116~ubuntu20.04.1} date Mon 04 Apr 2022 10:22:21 PM EDT
; FORMAT={-:-/ absolute / inch / decimal}
; #@! TF.CreationDate,2022-04-04T22:22:21-04:00
; #@! TF.GenerationSoftware,Kicad,Pcbnew,6.0.4-6f826c9f35~116~ubuntu20.04.1
; #@! TF.FileFunction,Plated,1,2,PTH
FMAT,2
INCH
; #@! TA.AperFunction,Plated,PTH,ViaDrill
T1C0.0157
; #@! TA.AperFunction,Plated,PTH,ComponentDrill
T2C0.0157
; #@! TA.AperFunction,Plated,PTH,ComponentDrill
T3C0.0327
; #@! TA.AperFunction,Plated,PTH,ComponentDrill
T4C0.0374
; #@! TA.AperFunction,Plated,PTH,ComponentDrill
T5C0.0866
%
G90
G05
T1
X5.225Y3.625
X5.2785Y3.475
X5.475Y3.5
X5.4827Y3.1077
X5.675Y2.875
X6.025Y2.65
X6.025Y3.15
X6.15Y2.9
X6.15Y3.1
X6.175Y2.7035
X6.2Y2.8533
X6.2Y3.125
X6.225Y3.075
X6.2535Y3.025
X6.2736Y3.1264
X6.3Y2.925
X6.35Y3.025
X6.375Y3.1875
X6.4043Y3.0067
X6.4295Y2.746
X6.4358Y2.9519
X6.475Y2.825
X6.475Y3.1905
X6.55Y3.1875
X6.625Y3.1875
T2
X5.0531Y3.4783
X5.0722Y3.4324
X5.0722Y3.5243
X5.1181Y3.4134
X5.1181Y3.5433
X5.164Y3.4324
X5.164Y3.5243
X5.1831Y3.4783
X5.8406Y2.7559
X5.8406Y4.3307
X5.8596Y2.71
X5.8596Y2.8018
X5.8596Y4.2848
X5.8596Y4.3766
X5.9055Y2.6909
X5.9055Y2.8209
X5.9055Y4.2657
X5.9055Y4.3957
X5.9514Y2.71
X5.9514Y2.8018
X5.9514Y4.2848
X5.9514Y4.3766
X5.9705Y2.7559
X5.9705Y4.3307
X6.628Y3.5433
X6.647Y3.4974
X6.647Y3.5892
X6.6929Y3.4783
X6.6929Y3.6083
X6.7388Y3.4974
X6.7388Y3.5892
X6.7579Y3.5433
T3
X5.3937Y3.4252
X5.3937Y3.5039
X5.3937Y3.5827
T4
X5.2353Y3.0819
X5.3049Y3.0123
X5.3745Y2.9427
X5.4441Y2.8731
X6.3725Y4.1101
X6.4421Y4.0405
X6.5117Y3.9709
T5
X5.1181Y3.4783
X5.9055Y2.7559
X5.9055Y4.3307
X6.6929Y3.5433
T0
M30
