%TF.GenerationSoftware,KiCad,Pcbnew,6.0.4-6f826c9f35~116~ubuntu20.04.1*%
%TF.CreationDate,2022-04-04T22:21:40-04:00*%
%TF.ProjectId,lab7,6c616237-2e6b-4696-9361-645f70636258,rev?*%
%TF.SameCoordinates,Original*%
%TF.FileFunction,Legend,Bot*%
%TF.FilePolarity,Positive*%
%FSLAX46Y46*%
G04 Gerber Fmt 4.6, Leading zero omitted, Abs format (unit mm)*
G04 Created by KiCad (PCBNEW 6.0.4-6f826c9f35~116~ubuntu20.04.1) date 2022-04-04 22:21:40*
%MOMM*%
%LPD*%
G01*
G04 APERTURE LIST*
%ADD10C,0.150000*%
%ADD11C,0.254000*%
%ADD12C,0.120000*%
%ADD13C,0.200000*%
G04 APERTURE END LIST*
D10*
%TO.C,C3*%
X164187142Y-71833333D02*
X164234761Y-71785714D01*
X164282380Y-71642857D01*
X164282380Y-71547619D01*
X164234761Y-71404761D01*
X164139523Y-71309523D01*
X164044285Y-71261904D01*
X163853809Y-71214285D01*
X163710952Y-71214285D01*
X163520476Y-71261904D01*
X163425238Y-71309523D01*
X163330000Y-71404761D01*
X163282380Y-71547619D01*
X163282380Y-71642857D01*
X163330000Y-71785714D01*
X163377619Y-71833333D01*
X163282380Y-72166666D02*
X163282380Y-72785714D01*
X163663333Y-72452380D01*
X163663333Y-72595238D01*
X163710952Y-72690476D01*
X163758571Y-72738095D01*
X163853809Y-72785714D01*
X164091904Y-72785714D01*
X164187142Y-72738095D01*
X164234761Y-72690476D01*
X164282380Y-72595238D01*
X164282380Y-72309523D01*
X164234761Y-72214285D01*
X164187142Y-72166666D01*
D11*
%TO.C,IC1*%
X139639523Y-87911238D02*
X138369523Y-87911238D01*
X139518571Y-89241714D02*
X139579047Y-89181238D01*
X139639523Y-88999809D01*
X139639523Y-88878857D01*
X139579047Y-88697428D01*
X139458095Y-88576476D01*
X139337142Y-88516000D01*
X139095238Y-88455523D01*
X138913809Y-88455523D01*
X138671904Y-88516000D01*
X138550952Y-88576476D01*
X138430000Y-88697428D01*
X138369523Y-88878857D01*
X138369523Y-88999809D01*
X138430000Y-89181238D01*
X138490476Y-89241714D01*
X139639523Y-90451238D02*
X139639523Y-89725523D01*
X139639523Y-90088380D02*
X138369523Y-90088380D01*
X138550952Y-89967428D01*
X138671904Y-89846476D01*
X138732380Y-89725523D01*
D10*
%TO.C,C4*%
X161020399Y-77192142D02*
X161068018Y-77239761D01*
X161210875Y-77287380D01*
X161306113Y-77287380D01*
X161448971Y-77239761D01*
X161544209Y-77144523D01*
X161591828Y-77049285D01*
X161639447Y-76858809D01*
X161639447Y-76715952D01*
X161591828Y-76525476D01*
X161544209Y-76430238D01*
X161448971Y-76335000D01*
X161306113Y-76287380D01*
X161210875Y-76287380D01*
X161068018Y-76335000D01*
X161020399Y-76382619D01*
X160163256Y-76620714D02*
X160163256Y-77287380D01*
X160401352Y-76239761D02*
X160639447Y-76954047D01*
X160020399Y-76954047D01*
%TO.C,C2*%
X159107142Y-71588333D02*
X159154761Y-71540714D01*
X159202380Y-71397857D01*
X159202380Y-71302619D01*
X159154761Y-71159761D01*
X159059523Y-71064523D01*
X158964285Y-71016904D01*
X158773809Y-70969285D01*
X158630952Y-70969285D01*
X158440476Y-71016904D01*
X158345238Y-71064523D01*
X158250000Y-71159761D01*
X158202380Y-71302619D01*
X158202380Y-71397857D01*
X158250000Y-71540714D01*
X158297619Y-71588333D01*
X158297619Y-71969285D02*
X158250000Y-72016904D01*
X158202380Y-72112142D01*
X158202380Y-72350238D01*
X158250000Y-72445476D01*
X158297619Y-72493095D01*
X158392857Y-72540714D01*
X158488095Y-72540714D01*
X158630952Y-72493095D01*
X159202380Y-71921666D01*
X159202380Y-72540714D01*
D12*
%TO.C,C3*%
X161490000Y-72146267D02*
X161490000Y-71853733D01*
X162510000Y-72146267D02*
X162510000Y-71853733D01*
D13*
%TO.C,IC1*%
X135400000Y-86700000D02*
X135400000Y-91300000D01*
X138000000Y-91300000D02*
X138000000Y-86700000D01*
X138816870Y-91149000D02*
G75*
G03*
X138816870Y-91149000I-46870J0D01*
G01*
D12*
%TO.C,C4*%
X161146267Y-75510000D02*
X160853733Y-75510000D01*
X161146267Y-74490000D02*
X160853733Y-74490000D01*
%TO.C,C2*%
X160510000Y-72146267D02*
X160510000Y-71853733D01*
X159490000Y-72146267D02*
X159490000Y-71853733D01*
%TD*%
M02*
