%TF.GenerationSoftware,KiCad,Pcbnew,(6.0.2-0)*%
%TF.CreationDate,2022-04-08T10:44:43-04:00*%
%TF.ProjectId,lab7,6c616237-2e6b-4696-9361-645f70636258,rev?*%
%TF.SameCoordinates,Original*%
%TF.FileFunction,Soldermask,Top*%
%TF.FilePolarity,Negative*%
%FSLAX46Y46*%
G04 Gerber Fmt 4.6, Leading zero omitted, Abs format (unit mm)*
G04 Created by KiCad (PCBNEW (6.0.2-0)) date 2022-04-08 10:44:43*
%MOMM*%
%LPD*%
G01*
G04 APERTURE LIST*
G04 Aperture macros list*
%AMRoundRect*
0 Rectangle with rounded corners*
0 $1 Rounding radius*
0 $2 $3 $4 $5 $6 $7 $8 $9 X,Y pos of 4 corners*
0 Add a 4 corners polygon primitive as box body*
4,1,4,$2,$3,$4,$5,$6,$7,$8,$9,$2,$3,0*
0 Add four circle primitives for the rounded corners*
1,1,$1+$1,$2,$3*
1,1,$1+$1,$4,$5*
1,1,$1+$1,$6,$7*
1,1,$1+$1,$8,$9*
0 Add four rect primitives between the rounded corners*
20,1,$1+$1,$2,$3,$4,$5,0*
20,1,$1+$1,$4,$5,$6,$7,0*
20,1,$1+$1,$6,$7,$8,$9,0*
20,1,$1+$1,$8,$9,$2,$3,0*%
%AMHorizOval*
0 Thick line with rounded ends*
0 $1 width*
0 $2 $3 position (X,Y) of the first rounded end (center of the circle)*
0 $4 $5 position (X,Y) of the second rounded end (center of the circle)*
0 Add line between two ends*
20,1,$1,$2,$3,$4,$5,0*
0 Add two circle primitives to create the rounded ends*
1,1,$1,$2,$3*
1,1,$1,$4,$5*%
%AMFreePoly0*
4,1,22,0.550000,-0.750000,0.000000,-0.750000,0.000000,-0.745033,-0.079941,-0.743568,-0.215256,-0.701293,-0.333266,-0.622738,-0.424486,-0.514219,-0.481581,-0.384460,-0.499164,-0.250000,-0.500000,-0.250000,-0.500000,0.250000,-0.499164,0.250000,-0.499963,0.256109,-0.478152,0.396186,-0.417904,0.524511,-0.324060,0.630769,-0.204165,0.706417,-0.067858,0.745374,0.000000,0.744959,0.000000,0.750000,
0.550000,0.750000,0.550000,-0.750000,0.550000,-0.750000,$1*%
%AMFreePoly1*
4,1,20,0.000000,0.744959,0.073905,0.744508,0.209726,0.703889,0.328688,0.626782,0.421226,0.519385,0.479903,0.390333,0.500000,0.250000,0.500000,-0.250000,0.499851,-0.262216,0.476331,-0.402017,0.414519,-0.529596,0.319384,-0.634700,0.198574,-0.708877,0.061801,-0.746166,0.000000,-0.745033,0.000000,-0.750000,-0.550000,-0.750000,-0.550000,0.750000,0.000000,0.750000,0.000000,0.744959,
0.000000,0.744959,$1*%
G04 Aperture macros list end*
%ADD10C,1.200000*%
%ADD11RoundRect,0.250000X0.088388X-0.936916X0.936916X-0.088388X-0.088388X0.936916X-0.936916X0.088388X0*%
%ADD12HorizOval,1.700000X-0.088388X0.088388X0.088388X-0.088388X0*%
%ADD13C,0.700000*%
%ADD14C,4.400000*%
%ADD15C,1.500000*%
%ADD16RoundRect,0.237500X0.237500X-0.250000X0.237500X0.250000X-0.237500X0.250000X-0.237500X-0.250000X0*%
%ADD17RoundRect,0.237500X0.237500X-0.300000X0.237500X0.300000X-0.237500X0.300000X-0.237500X-0.300000X0*%
%ADD18R,0.740000X2.790000*%
%ADD19R,0.900000X0.350000*%
%ADD20RoundRect,0.062500X-0.375000X-0.062500X0.375000X-0.062500X0.375000X0.062500X-0.375000X0.062500X0*%
%ADD21RoundRect,0.062500X-0.062500X-0.375000X0.062500X-0.375000X0.062500X0.375000X-0.062500X0.375000X0*%
%ADD22R,3.450000X3.450000*%
%ADD23FreePoly0,180.000000*%
%ADD24R,1.000000X1.500000*%
%ADD25FreePoly1,180.000000*%
%ADD26R,3.600000X2.600000*%
%ADD27C,1.330000*%
G04 APERTURE END LIST*
D10*
%TO.C,J2*%
X133259962Y-80826004D03*
D11*
X132977119Y-78280420D03*
D12*
X134744886Y-76512653D03*
X136512653Y-74744886D03*
X138280420Y-72977119D03*
%TD*%
D13*
%TO.C,H4*%
X151650000Y-110000000D03*
X151166726Y-111166726D03*
X150000000Y-111650000D03*
X148350000Y-110000000D03*
X148833274Y-108833274D03*
X151166726Y-108833274D03*
X148833274Y-111166726D03*
X150000000Y-108350000D03*
D14*
X150000000Y-110000000D03*
%TD*%
D10*
%TO.C,J1*%
X162143845Y-106942120D03*
D11*
X161861002Y-104396536D03*
D12*
X163628769Y-102628769D03*
X165396536Y-100861002D03*
%TD*%
D15*
%TO.C,TP2*%
X156000000Y-70000000D03*
%TD*%
D16*
%TO.C,R2*%
X163000000Y-94912500D03*
X163000000Y-93087500D03*
%TD*%
%TO.C,R1*%
X165000000Y-94912500D03*
X165000000Y-93087500D03*
%TD*%
D14*
%TO.C,H3*%
X130000000Y-88350000D03*
D13*
X130000000Y-90000000D03*
X130000000Y-86700000D03*
X131166726Y-87183274D03*
X128833274Y-89516726D03*
X128350000Y-88350000D03*
X128833274Y-87183274D03*
X131650000Y-88350000D03*
X131166726Y-89516726D03*
%TD*%
D17*
%TO.C,C1*%
X133985000Y-92302500D03*
X133985000Y-90577500D03*
%TD*%
D15*
%TO.C,TP1*%
X138000000Y-84000000D03*
%TD*%
D18*
%TO.C,U1*%
X169810000Y-78968000D03*
X169810000Y-83032000D03*
X168540000Y-78968000D03*
X168540000Y-83032000D03*
X167270000Y-78968000D03*
X167270000Y-83032000D03*
X166000000Y-78968000D03*
X166000000Y-83032000D03*
X164730000Y-78968000D03*
X164730000Y-83032000D03*
X163460000Y-78968000D03*
X163460000Y-83032000D03*
X162190000Y-78968000D03*
X162190000Y-83032000D03*
%TD*%
D13*
%TO.C,H1*%
X171166726Y-88833274D03*
X171650000Y-90000000D03*
X168350000Y-90000000D03*
D14*
X170000000Y-90000000D03*
D13*
X170000000Y-91650000D03*
X170000000Y-88350000D03*
X171166726Y-91166726D03*
X168833274Y-88833274D03*
X168833274Y-91166726D03*
%TD*%
D19*
%TO.C,U2*%
X155012500Y-74437500D03*
X155012500Y-75137500D03*
X155012500Y-75837500D03*
X155012500Y-76537500D03*
X155012500Y-77237500D03*
X156752500Y-77237500D03*
X156752500Y-76537500D03*
X156752500Y-75837500D03*
X156752500Y-75137500D03*
X156752500Y-74437500D03*
%TD*%
D14*
%TO.C,H2*%
X150000000Y-70000000D03*
D13*
X150000000Y-71650000D03*
X148350000Y-70000000D03*
X148833274Y-71166726D03*
X151166726Y-71166726D03*
X150000000Y-68350000D03*
X148833274Y-68833274D03*
X151650000Y-70000000D03*
X151166726Y-68833274D03*
%TD*%
D20*
%TO.C,U3*%
X158562500Y-71250000D03*
X158562500Y-71750000D03*
X158562500Y-72250000D03*
X158562500Y-72750000D03*
X158562500Y-73250000D03*
X158562500Y-73750000D03*
X158562500Y-74250000D03*
X158562500Y-74750000D03*
D21*
X159250000Y-75437500D03*
X159750000Y-75437500D03*
X160250000Y-75437500D03*
X160750000Y-75437500D03*
X161250000Y-75437500D03*
X161750000Y-75437500D03*
X162250000Y-75437500D03*
X162750000Y-75437500D03*
D20*
X163437500Y-74750000D03*
X163437500Y-74250000D03*
X163437500Y-73750000D03*
X163437500Y-73250000D03*
X163437500Y-72750000D03*
X163437500Y-72250000D03*
X163437500Y-71750000D03*
X163437500Y-71250000D03*
D21*
X162750000Y-70562500D03*
X162250000Y-70562500D03*
X161750000Y-70562500D03*
X161250000Y-70562500D03*
X160750000Y-70562500D03*
X160250000Y-70562500D03*
X159750000Y-70562500D03*
X159250000Y-70562500D03*
D22*
X161000000Y-73000000D03*
%TD*%
D15*
%TO.C,TP3*%
X166000000Y-74000000D03*
%TD*%
D23*
%TO.C,JP1*%
X145300000Y-69000000D03*
D24*
X144000000Y-69000000D03*
D25*
X142700000Y-69000000D03*
%TD*%
D26*
%TO.C,BT1*%
X150000000Y-75350000D03*
X150000000Y-104650000D03*
%TD*%
D27*
%TO.C,IC1*%
X137000000Y-91000000D03*
X137000000Y-89000000D03*
X137000000Y-87000000D03*
%TD*%
M02*
