%TF.GenerationSoftware,KiCad,Pcbnew,(6.0.2-0)*%
%TF.CreationDate,2022-04-08T10:44:43-04:00*%
%TF.ProjectId,lab7,6c616237-2e6b-4696-9361-645f70636258,rev?*%
%TF.SameCoordinates,Original*%
%TF.FileFunction,Soldermask,Bot*%
%TF.FilePolarity,Negative*%
%FSLAX46Y46*%
G04 Gerber Fmt 4.6, Leading zero omitted, Abs format (unit mm)*
G04 Created by KiCad (PCBNEW (6.0.2-0)) date 2022-04-08 10:44:43*
%MOMM*%
%LPD*%
G01*
G04 APERTURE LIST*
G04 Aperture macros list*
%AMRoundRect*
0 Rectangle with rounded corners*
0 $1 Rounding radius*
0 $2 $3 $4 $5 $6 $7 $8 $9 X,Y pos of 4 corners*
0 Add a 4 corners polygon primitive as box body*
4,1,4,$2,$3,$4,$5,$6,$7,$8,$9,$2,$3,0*
0 Add four circle primitives for the rounded corners*
1,1,$1+$1,$2,$3*
1,1,$1+$1,$4,$5*
1,1,$1+$1,$6,$7*
1,1,$1+$1,$8,$9*
0 Add four rect primitives between the rounded corners*
20,1,$1+$1,$2,$3,$4,$5,0*
20,1,$1+$1,$4,$5,$6,$7,0*
20,1,$1+$1,$6,$7,$8,$9,0*
20,1,$1+$1,$8,$9,$2,$3,0*%
%AMHorizOval*
0 Thick line with rounded ends*
0 $1 width*
0 $2 $3 position (X,Y) of the first rounded end (center of the circle)*
0 $4 $5 position (X,Y) of the second rounded end (center of the circle)*
0 Add line between two ends*
20,1,$1,$2,$3,$4,$5,0*
0 Add two circle primitives to create the rounded ends*
1,1,$1,$2,$3*
1,1,$1,$4,$5*%
G04 Aperture macros list end*
%ADD10C,1.200000*%
%ADD11RoundRect,0.250000X0.088388X-0.936916X0.936916X-0.088388X-0.088388X0.936916X-0.936916X0.088388X0*%
%ADD12HorizOval,1.700000X-0.088388X0.088388X0.088388X-0.088388X0*%
%ADD13C,0.700000*%
%ADD14C,4.400000*%
%ADD15RoundRect,0.237500X0.237500X-0.300000X0.237500X0.300000X-0.237500X0.300000X-0.237500X-0.300000X0*%
%ADD16C,1.330000*%
%ADD17RoundRect,0.237500X0.300000X0.237500X-0.300000X0.237500X-0.300000X-0.237500X0.300000X-0.237500X0*%
G04 APERTURE END LIST*
D10*
%TO.C,J2*%
X133259962Y-80826004D03*
D11*
X132977119Y-78280420D03*
D12*
X134744886Y-76512653D03*
X136512653Y-74744886D03*
X138280420Y-72977119D03*
%TD*%
D13*
%TO.C,H4*%
X151650000Y-110000000D03*
X151166726Y-111166726D03*
X150000000Y-111650000D03*
X148350000Y-110000000D03*
X148833274Y-108833274D03*
X151166726Y-108833274D03*
X148833274Y-111166726D03*
X150000000Y-108350000D03*
D14*
X150000000Y-110000000D03*
%TD*%
D10*
%TO.C,J1*%
X162143845Y-106942120D03*
D11*
X161861002Y-104396536D03*
D12*
X163628769Y-102628769D03*
X165396536Y-100861002D03*
%TD*%
D14*
%TO.C,H3*%
X130000000Y-88350000D03*
D13*
X130000000Y-90000000D03*
X130000000Y-86700000D03*
X131166726Y-87183274D03*
X128833274Y-89516726D03*
X128350000Y-88350000D03*
X128833274Y-87183274D03*
X131650000Y-88350000D03*
X131166726Y-89516726D03*
%TD*%
%TO.C,H1*%
X171166726Y-88833274D03*
X171650000Y-90000000D03*
X168350000Y-90000000D03*
D14*
X170000000Y-90000000D03*
D13*
X170000000Y-91650000D03*
X170000000Y-88350000D03*
X171166726Y-91166726D03*
X168833274Y-88833274D03*
X168833274Y-91166726D03*
%TD*%
D14*
%TO.C,H2*%
X150000000Y-70000000D03*
D13*
X150000000Y-71650000D03*
X148350000Y-70000000D03*
X148833274Y-71166726D03*
X151166726Y-71166726D03*
X150000000Y-68350000D03*
X148833274Y-68833274D03*
X151650000Y-70000000D03*
X151166726Y-68833274D03*
%TD*%
D15*
%TO.C,C3*%
X162000000Y-72862500D03*
X162000000Y-71137500D03*
%TD*%
D16*
%TO.C,IC1*%
X137000000Y-91000000D03*
X137000000Y-89000000D03*
X137000000Y-87000000D03*
%TD*%
D17*
%TO.C,C4*%
X161862500Y-75000000D03*
X160137500Y-75000000D03*
%TD*%
D15*
%TO.C,C2*%
X160000000Y-72862500D03*
X160000000Y-71137500D03*
%TD*%
M02*
