M48
; DRILL file {KiCad (6.0.2-0)} date Friday, April 08, 2022 at 10:48:58 AM
; FORMAT={-:-/ absolute / inch / decimal}
; #@! TF.CreationDate,2022-04-08T10:48:58-04:00
; #@! TF.GenerationSoftware,Kicad,Pcbnew,(6.0.2-0)
; #@! TF.FileFunction,MixedPlating,1,2
FMAT,2
INCH
; #@! TA.AperFunction,Plated,PTH,ViaDrill
T1C0.0157
; #@! TA.AperFunction,Plated,PTH,ComponentDrill
T2C0.0157
; #@! TA.AperFunction,Plated,PTH,ComponentDrill
T3C0.0327
; #@! TA.AperFunction,Plated,PTH,ComponentDrill
T4C0.0374
; #@! TA.AperFunction,Plated,PTH,ComponentDrill
T5C0.0866
; #@! TA.AperFunction,NonPlated,NPTH,ComponentDrill
T6C0.0472
%
G90
G05
T1
X5.225Y-3.625
X5.2785Y-3.475
X5.475Y-3.5
X5.4827Y-3.1077
X5.675Y-2.875
X6.025Y-2.65
X6.025Y-3.15
X6.15Y-2.9
X6.15Y-3.1
X6.175Y-2.7035
X6.2Y-2.8533
X6.2Y-3.125
X6.225Y-3.075
X6.2535Y-3.025
X6.2736Y-3.1264
X6.3Y-2.925
X6.35Y-3.025
X6.375Y-3.1875
X6.4043Y-3.0067
X6.4295Y-2.746
X6.4358Y-2.9519
X6.475Y-2.825
X6.475Y-3.1905
X6.55Y-3.1875
X6.625Y-3.1875
T2
X5.0531Y-3.4783
X5.0722Y-3.4324
X5.0722Y-3.5243
X5.1181Y-3.4134
X5.1181Y-3.5433
X5.164Y-3.4324
X5.164Y-3.5243
X5.1831Y-3.4783
X5.8406Y-2.7559
X5.8406Y-4.3307
X5.8596Y-2.71
X5.8596Y-2.8018
X5.8596Y-4.2848
X5.8596Y-4.3766
X5.9055Y-2.6909
X5.9055Y-2.8209
X5.9055Y-4.2657
X5.9055Y-4.3957
X5.9514Y-2.71
X5.9514Y-2.8018
X5.9514Y-4.2848
X5.9514Y-4.3766
X5.9705Y-2.7559
X5.9705Y-4.3307
X6.628Y-3.5433
X6.647Y-3.4974
X6.647Y-3.5892
X6.6929Y-3.4783
X6.6929Y-3.6083
X6.7388Y-3.4974
X6.7388Y-3.5892
X6.7579Y-3.5433
T3
X5.3937Y-3.4252
X5.3937Y-3.5039
X5.3937Y-3.5827
T4
X5.2353Y-3.0819
X5.3049Y-3.0123
X5.3745Y-2.9427
X5.4441Y-2.8731
X6.3725Y-4.1101
X6.4421Y-4.0405
X6.5117Y-3.9709
T5
X5.1181Y-3.4783
X5.9055Y-2.7559
X5.9055Y-4.3307
X6.6929Y-3.5433
T6
X5.2465Y-3.1821
X6.3836Y-4.2103
T0
M30
