%TF.GenerationSoftware,KiCad,Pcbnew,(6.0.2-0)*%
%TF.CreationDate,2022-04-08T10:44:43-04:00*%
%TF.ProjectId,lab7,6c616237-2e6b-4696-9361-645f70636258,rev?*%
%TF.SameCoordinates,Original*%
%TF.FileFunction,Copper,L2,Bot*%
%TF.FilePolarity,Positive*%
%FSLAX46Y46*%
G04 Gerber Fmt 4.6, Leading zero omitted, Abs format (unit mm)*
G04 Created by KiCad (PCBNEW (6.0.2-0)) date 2022-04-08 10:44:43*
%MOMM*%
%LPD*%
G01*
G04 APERTURE LIST*
G04 Aperture macros list*
%AMRoundRect*
0 Rectangle with rounded corners*
0 $1 Rounding radius*
0 $2 $3 $4 $5 $6 $7 $8 $9 X,Y pos of 4 corners*
0 Add a 4 corners polygon primitive as box body*
4,1,4,$2,$3,$4,$5,$6,$7,$8,$9,$2,$3,0*
0 Add four circle primitives for the rounded corners*
1,1,$1+$1,$2,$3*
1,1,$1+$1,$4,$5*
1,1,$1+$1,$6,$7*
1,1,$1+$1,$8,$9*
0 Add four rect primitives between the rounded corners*
20,1,$1+$1,$2,$3,$4,$5,0*
20,1,$1+$1,$4,$5,$6,$7,0*
20,1,$1+$1,$6,$7,$8,$9,0*
20,1,$1+$1,$8,$9,$2,$3,0*%
%AMHorizOval*
0 Thick line with rounded ends*
0 $1 width*
0 $2 $3 position (X,Y) of the first rounded end (center of the circle)*
0 $4 $5 position (X,Y) of the second rounded end (center of the circle)*
0 Add line between two ends*
20,1,$1,$2,$3,$4,$5,0*
0 Add two circle primitives to create the rounded ends*
1,1,$1,$2,$3*
1,1,$1,$4,$5*%
G04 Aperture macros list end*
%TA.AperFunction,ComponentPad*%
%ADD10RoundRect,0.250000X0.088388X-0.936916X0.936916X-0.088388X-0.088388X0.936916X-0.936916X0.088388X0*%
%TD*%
%TA.AperFunction,ComponentPad*%
%ADD11HorizOval,1.700000X-0.088388X0.088388X0.088388X-0.088388X0*%
%TD*%
%TA.AperFunction,ComponentPad*%
%ADD12C,0.700000*%
%TD*%
%TA.AperFunction,ComponentPad*%
%ADD13C,4.400000*%
%TD*%
%TA.AperFunction,SMDPad,CuDef*%
%ADD14RoundRect,0.237500X0.237500X-0.300000X0.237500X0.300000X-0.237500X0.300000X-0.237500X-0.300000X0*%
%TD*%
%TA.AperFunction,ComponentPad*%
%ADD15C,1.330000*%
%TD*%
%TA.AperFunction,SMDPad,CuDef*%
%ADD16RoundRect,0.237500X0.300000X0.237500X-0.300000X0.237500X-0.300000X-0.237500X0.300000X-0.237500X0*%
%TD*%
%TA.AperFunction,ViaPad*%
%ADD17C,0.800000*%
%TD*%
%TA.AperFunction,Conductor*%
%ADD18C,0.250000*%
%TD*%
G04 APERTURE END LIST*
D10*
%TO.P,J2,1,Pin_1*%
%TO.N,unconnected-(J2-Pad1)*%
X132977119Y-78280420D03*
D11*
%TO.P,J2,2,Pin_2*%
%TO.N,Net-(J2-Pad2)*%
X134744886Y-76512653D03*
%TO.P,J2,3,Pin_3*%
%TO.N,unconnected-(J2-Pad3)*%
X136512653Y-74744886D03*
%TO.P,J2,4,Pin_4*%
%TO.N,GND*%
X138280420Y-72977119D03*
%TD*%
D12*
%TO.P,H4,1*%
%TO.N,N/C*%
X151650000Y-110000000D03*
X151166726Y-111166726D03*
X150000000Y-111650000D03*
X148350000Y-110000000D03*
X148833274Y-108833274D03*
X151166726Y-108833274D03*
X148833274Y-111166726D03*
X150000000Y-108350000D03*
D13*
X150000000Y-110000000D03*
%TD*%
D10*
%TO.P,J1,1,Pin_1*%
%TO.N,GND*%
X161861002Y-104396536D03*
D11*
%TO.P,J1,2,Pin_2*%
%TO.N,Net-(J1-Pad2)*%
X163628769Y-102628769D03*
%TO.P,J1,3,Pin_3*%
%TO.N,Net-(J1-Pad3)*%
X165396536Y-100861002D03*
%TD*%
D13*
%TO.P,H3,1*%
%TO.N,N/C*%
X130000000Y-88350000D03*
D12*
X130000000Y-90000000D03*
X130000000Y-86700000D03*
X131166726Y-87183274D03*
X128833274Y-89516726D03*
X128350000Y-88350000D03*
X128833274Y-87183274D03*
X131650000Y-88350000D03*
X131166726Y-89516726D03*
%TD*%
%TO.P,H1,1*%
%TO.N,N/C*%
X171166726Y-88833274D03*
X171650000Y-90000000D03*
X168350000Y-90000000D03*
D13*
X170000000Y-90000000D03*
D12*
X170000000Y-91650000D03*
X170000000Y-88350000D03*
X171166726Y-91166726D03*
X168833274Y-88833274D03*
X168833274Y-91166726D03*
%TD*%
D13*
%TO.P,H2,1*%
%TO.N,N/C*%
X150000000Y-70000000D03*
D12*
X150000000Y-71650000D03*
X148350000Y-70000000D03*
X148833274Y-71166726D03*
X151166726Y-71166726D03*
X150000000Y-68350000D03*
X148833274Y-68833274D03*
X151650000Y-70000000D03*
X151166726Y-68833274D03*
%TD*%
D14*
%TO.P,C3,1*%
%TO.N,VDD*%
X162000000Y-72862500D03*
%TO.P,C3,2*%
%TO.N,GND*%
X162000000Y-71137500D03*
%TD*%
D15*
%TO.P,IC1,1,GND*%
%TO.N,GND*%
X137000000Y-91000000D03*
%TO.P,IC1,2,VDD*%
%TO.N,/sensor_pwr*%
X137000000Y-89000000D03*
%TO.P,IC1,3,OUT*%
%TO.N,Net-(IC1-Pad3)*%
X137000000Y-87000000D03*
%TD*%
D16*
%TO.P,C4,1*%
%TO.N,VDD*%
X161862500Y-75000000D03*
%TO.P,C4,2*%
%TO.N,GND*%
X160137500Y-75000000D03*
%TD*%
D14*
%TO.P,C2,1*%
%TO.N,VDD*%
X160000000Y-72862500D03*
%TO.P,C2,2*%
%TO.N,GND*%
X160000000Y-71137500D03*
%TD*%
D17*
%TO.N,VDD*%
X132715000Y-92075000D03*
X156845000Y-68669500D03*
X163469176Y-74978703D03*
X156210000Y-73660000D03*
X144145000Y-73025000D03*
%TO.N,/SWDIO*%
X168275000Y-80962502D03*
X164465000Y-71755000D03*
%TO.N,GND*%
X157480000Y-79375000D03*
X156210000Y-78740000D03*
X134074500Y-88265000D03*
X162668843Y-76370411D03*
X139259799Y-78934799D03*
X153035000Y-80010000D03*
X153035000Y-67310000D03*
X160020000Y-74295000D03*
%TO.N,/SWO*%
X163308893Y-69749506D03*
X166370000Y-80962502D03*
%TO.N,/NRST*%
X157480000Y-72474500D03*
X164465000Y-81037498D03*
%TO.N,/RX*%
X161290000Y-76835000D03*
X158839500Y-76835000D03*
%TO.N,/TX*%
X161925000Y-80962502D03*
X158115000Y-78105000D03*
%TO.N,/sensor_pwr*%
X139065000Y-88900000D03*
X159348950Y-79411050D03*
%TD*%
D18*
%TO.N,VDD*%
X161883797Y-74978703D02*
X161862500Y-75000000D01*
X144145000Y-73025000D02*
X155575000Y-73025000D01*
X132715000Y-89535000D02*
X132715000Y-92075000D01*
X155575000Y-73025000D02*
X156210000Y-73660000D01*
X133350000Y-83820000D02*
X133350000Y-88900000D01*
X154305000Y-69215000D02*
X154305000Y-71755000D01*
X160000000Y-72862500D02*
X158477989Y-74384511D01*
X158477989Y-74384511D02*
X156934511Y-74384511D01*
X133350000Y-88900000D02*
X132715000Y-89535000D01*
X154305000Y-71755000D02*
X156210000Y-73660000D01*
X161862500Y-75000000D02*
X161862500Y-73000000D01*
X163469176Y-74978703D02*
X161883797Y-74978703D01*
X154850500Y-68669500D02*
X154305000Y-69215000D01*
X156845000Y-68669500D02*
X154850500Y-68669500D01*
X161862500Y-73000000D02*
X162000000Y-72862500D01*
X144145000Y-73025000D02*
X133350000Y-83820000D01*
X156934511Y-74384511D02*
X156210000Y-73660000D01*
%TO.N,/SWDIO*%
X168275000Y-80962502D02*
X168275000Y-75565000D01*
X168275000Y-75565000D02*
X164465000Y-71755000D01*
%TO.N,GND*%
X160137500Y-75000000D02*
X159649886Y-75000000D01*
X139259799Y-78934799D02*
X134074500Y-84120098D01*
X160020000Y-74882500D02*
X160137500Y-75000000D01*
X162408921Y-76110489D02*
X161247989Y-76110489D01*
X155575000Y-67945000D02*
X154940000Y-67310000D01*
X156210000Y-78740000D02*
X154940000Y-80010000D01*
X154940000Y-80010000D02*
X153035000Y-80010000D01*
X159649886Y-75000000D02*
X157390489Y-77259397D01*
X162668843Y-76370411D02*
X162408921Y-76110489D01*
X159385000Y-67945000D02*
X155575000Y-67945000D01*
X162000000Y-69290000D02*
X160655000Y-67945000D01*
X134074500Y-84120098D02*
X134074500Y-88265000D01*
X154940000Y-67310000D02*
X153035000Y-67310000D01*
X160000000Y-71137500D02*
X160000000Y-68560000D01*
X160000000Y-68560000D02*
X159385000Y-67945000D01*
X160020000Y-74295000D02*
X160020000Y-74882500D01*
X160655000Y-67945000D02*
X159385000Y-67945000D01*
X157390489Y-79285489D02*
X157480000Y-79375000D01*
X162000000Y-71137500D02*
X162000000Y-69290000D01*
X157390489Y-77259397D02*
X157390489Y-79285489D01*
X161247989Y-76110489D02*
X160137500Y-75000000D01*
%TO.N,/SWO*%
X163740489Y-70181102D02*
X163308893Y-69749506D01*
X164465000Y-72479511D02*
X164164897Y-72479511D01*
X163740489Y-72055103D02*
X163740489Y-71755000D01*
X164164897Y-72479511D02*
X163740489Y-72055103D01*
X166370000Y-74295718D02*
X166369641Y-74295359D01*
X166370000Y-80962502D02*
X166370000Y-74295718D01*
X163740489Y-71755000D02*
X163740489Y-70181102D01*
X164553793Y-72479511D02*
X164465000Y-72479511D01*
X166369641Y-74295359D02*
X164553793Y-72479511D01*
%TO.N,/NRST*%
X157954980Y-71999520D02*
X162469336Y-71999520D01*
X162469336Y-71999520D02*
X164465000Y-73995184D01*
X164465000Y-73995184D02*
X164465000Y-81037498D01*
X157480000Y-72474500D02*
X157954980Y-71999520D01*
%TO.N,/RX*%
X161290000Y-76835000D02*
X158839500Y-76835000D01*
%TO.N,/TX*%
X161925000Y-80962502D02*
X159067498Y-78105000D01*
X159067498Y-78105000D02*
X158115000Y-78105000D01*
%TO.N,/sensor_pwr*%
X149860000Y-88900000D02*
X139065000Y-88900000D01*
X159348950Y-79411050D02*
X149860000Y-88900000D01*
%TD*%
%TA.AperFunction,Conductor*%
%TO.N,VDD*%
G36*
X150130755Y-65508400D02*
G01*
X150600664Y-65520294D01*
X151108532Y-65533150D01*
X151113551Y-65533378D01*
X151549989Y-65561984D01*
X152089507Y-65597346D01*
X152094546Y-65597778D01*
X153067149Y-65700861D01*
X153072167Y-65701495D01*
X153600170Y-65778993D01*
X154039840Y-65843525D01*
X154044801Y-65844355D01*
X154408284Y-65912707D01*
X155006047Y-66025116D01*
X155010998Y-66026151D01*
X155964153Y-66245328D01*
X155969058Y-66246560D01*
X156912666Y-66503817D01*
X156917518Y-66505245D01*
X157850034Y-66800161D01*
X157854824Y-66801782D01*
X157936980Y-66831441D01*
X158523719Y-67043258D01*
X158589446Y-67066986D01*
X158646728Y-67108931D01*
X158672239Y-67175186D01*
X158657881Y-67244715D01*
X158608211Y-67295444D01*
X158546662Y-67311500D01*
X155889595Y-67311500D01*
X155821474Y-67291498D01*
X155800499Y-67274595D01*
X155634836Y-67108931D01*
X155443647Y-66917742D01*
X155436113Y-66909463D01*
X155432000Y-66902982D01*
X155382348Y-66856356D01*
X155379507Y-66853602D01*
X155359770Y-66833865D01*
X155356573Y-66831385D01*
X155347551Y-66823680D01*
X155324232Y-66801782D01*
X155315321Y-66793414D01*
X155308375Y-66789595D01*
X155308372Y-66789593D01*
X155297566Y-66783652D01*
X155281047Y-66772801D01*
X155275048Y-66768148D01*
X155265041Y-66760386D01*
X155257772Y-66757241D01*
X155257768Y-66757238D01*
X155224463Y-66742826D01*
X155213813Y-66737609D01*
X155175060Y-66716305D01*
X155155437Y-66711267D01*
X155136734Y-66704863D01*
X155125420Y-66699967D01*
X155125419Y-66699967D01*
X155118145Y-66696819D01*
X155110322Y-66695580D01*
X155110312Y-66695577D01*
X155074476Y-66689901D01*
X155062856Y-66687495D01*
X155027711Y-66678472D01*
X155027710Y-66678472D01*
X155020030Y-66676500D01*
X154999776Y-66676500D01*
X154980065Y-66674949D01*
X154967886Y-66673020D01*
X154960057Y-66671780D01*
X154952165Y-66672526D01*
X154916039Y-66675941D01*
X154904181Y-66676500D01*
X153743200Y-66676500D01*
X153675079Y-66656498D01*
X153655853Y-66640157D01*
X153655580Y-66640460D01*
X153650668Y-66636037D01*
X153646253Y-66631134D01*
X153491752Y-66518882D01*
X153485724Y-66516198D01*
X153485722Y-66516197D01*
X153323319Y-66443891D01*
X153323318Y-66443891D01*
X153317288Y-66441206D01*
X153223888Y-66421353D01*
X153136944Y-66402872D01*
X153136939Y-66402872D01*
X153130487Y-66401500D01*
X152939513Y-66401500D01*
X152933061Y-66402872D01*
X152933056Y-66402872D01*
X152846112Y-66421353D01*
X152752712Y-66441206D01*
X152746682Y-66443891D01*
X152746681Y-66443891D01*
X152584278Y-66516197D01*
X152584276Y-66516198D01*
X152578248Y-66518882D01*
X152423747Y-66631134D01*
X152419326Y-66636044D01*
X152419325Y-66636045D01*
X152302492Y-66765802D01*
X152295960Y-66773056D01*
X152200473Y-66938444D01*
X152141458Y-67120072D01*
X152140768Y-67126633D01*
X152140768Y-67126635D01*
X152135665Y-67175186D01*
X152121496Y-67310000D01*
X152122186Y-67316565D01*
X152138139Y-67468345D01*
X152141458Y-67499928D01*
X152200473Y-67681556D01*
X152295960Y-67846944D01*
X152300378Y-67851851D01*
X152300379Y-67851852D01*
X152410392Y-67974034D01*
X152423747Y-67988866D01*
X152578248Y-68101118D01*
X152584276Y-68103802D01*
X152584278Y-68103803D01*
X152746681Y-68176109D01*
X152752712Y-68178794D01*
X152846112Y-68198647D01*
X152933056Y-68217128D01*
X152933061Y-68217128D01*
X152939513Y-68218500D01*
X153130487Y-68218500D01*
X153136939Y-68217128D01*
X153136944Y-68217128D01*
X153223888Y-68198647D01*
X153317288Y-68178794D01*
X153323319Y-68176109D01*
X153485722Y-68103803D01*
X153485724Y-68103802D01*
X153491752Y-68101118D01*
X153646253Y-67988866D01*
X153650668Y-67983963D01*
X153655580Y-67979540D01*
X153656705Y-67980789D01*
X153710014Y-67947949D01*
X153743200Y-67943500D01*
X154625406Y-67943500D01*
X154693527Y-67963502D01*
X154714501Y-67980405D01*
X155071343Y-68337247D01*
X155078887Y-68345537D01*
X155083000Y-68352018D01*
X155088777Y-68357443D01*
X155132667Y-68398658D01*
X155135509Y-68401413D01*
X155155231Y-68421135D01*
X155158355Y-68423558D01*
X155158359Y-68423562D01*
X155158424Y-68423612D01*
X155167445Y-68431317D01*
X155199679Y-68461586D01*
X155206627Y-68465405D01*
X155206629Y-68465407D01*
X155217432Y-68471346D01*
X155233959Y-68482202D01*
X155243698Y-68489757D01*
X155243700Y-68489758D01*
X155249960Y-68494614D01*
X155290540Y-68512174D01*
X155301188Y-68517391D01*
X155339940Y-68538695D01*
X155347616Y-68540666D01*
X155347619Y-68540667D01*
X155359562Y-68543733D01*
X155378266Y-68550137D01*
X155388795Y-68554693D01*
X155396855Y-68558181D01*
X155404678Y-68559420D01*
X155404688Y-68559423D01*
X155440524Y-68565099D01*
X155452144Y-68567505D01*
X155487289Y-68576528D01*
X155494970Y-68578500D01*
X155515224Y-68578500D01*
X155534934Y-68580051D01*
X155554943Y-68583220D01*
X155562835Y-68582474D01*
X155598961Y-68579059D01*
X155610819Y-68578500D01*
X159070406Y-68578500D01*
X159138527Y-68598502D01*
X159159501Y-68615405D01*
X159329595Y-68785499D01*
X159363621Y-68847811D01*
X159366500Y-68874594D01*
X159366500Y-70135036D01*
X159346498Y-70203157D01*
X159306804Y-70242179D01*
X159295969Y-70248884D01*
X159290796Y-70254066D01*
X159178242Y-70366816D01*
X159178238Y-70366821D01*
X159173071Y-70371997D01*
X159169231Y-70378227D01*
X159169230Y-70378228D01*
X159107185Y-70478884D01*
X159081791Y-70520080D01*
X159027026Y-70685191D01*
X159026326Y-70692027D01*
X159026325Y-70692030D01*
X159023408Y-70720500D01*
X159016500Y-70787928D01*
X159016500Y-71240020D01*
X158996498Y-71308141D01*
X158942842Y-71354634D01*
X158890500Y-71366020D01*
X158033747Y-71366020D01*
X158022564Y-71365493D01*
X158015071Y-71363818D01*
X158007145Y-71364067D01*
X158007144Y-71364067D01*
X157946994Y-71365958D01*
X157943035Y-71366020D01*
X157915124Y-71366020D01*
X157911190Y-71366517D01*
X157911189Y-71366517D01*
X157911124Y-71366525D01*
X157899287Y-71367458D01*
X157867470Y-71368458D01*
X157863009Y-71368598D01*
X157855090Y-71368847D01*
X157837434Y-71373976D01*
X157835638Y-71374498D01*
X157816286Y-71378506D01*
X157809215Y-71379400D01*
X157796183Y-71381046D01*
X157788814Y-71383963D01*
X157788812Y-71383964D01*
X157755077Y-71397320D01*
X157743849Y-71401165D01*
X157701387Y-71413502D01*
X157694565Y-71417536D01*
X157694559Y-71417539D01*
X157683948Y-71423814D01*
X157666198Y-71432510D01*
X157654736Y-71437048D01*
X157654731Y-71437051D01*
X157647363Y-71439968D01*
X157640948Y-71444629D01*
X157611605Y-71465947D01*
X157601687Y-71472463D01*
X157582999Y-71483515D01*
X157563617Y-71494978D01*
X157549293Y-71509302D01*
X157534261Y-71522141D01*
X157517873Y-71534048D01*
X157517872Y-71534049D01*
X157517723Y-71533845D01*
X157458314Y-71563901D01*
X157435412Y-71566000D01*
X157384513Y-71566000D01*
X157378061Y-71567372D01*
X157378056Y-71567372D01*
X157302606Y-71583410D01*
X157197712Y-71605706D01*
X157191682Y-71608391D01*
X157191681Y-71608391D01*
X157029278Y-71680697D01*
X157029276Y-71680698D01*
X157023248Y-71683382D01*
X157017907Y-71687262D01*
X157017906Y-71687263D01*
X156967843Y-71723636D01*
X156868747Y-71795634D01*
X156864326Y-71800544D01*
X156864325Y-71800545D01*
X156834452Y-71833723D01*
X156740960Y-71937556D01*
X156737659Y-71943274D01*
X156667030Y-72065607D01*
X156645473Y-72102944D01*
X156586458Y-72284572D01*
X156566496Y-72474500D01*
X156567186Y-72481065D01*
X156584413Y-72644967D01*
X156586458Y-72664428D01*
X156645473Y-72846056D01*
X156740960Y-73011444D01*
X156745378Y-73016351D01*
X156745379Y-73016352D01*
X156845912Y-73128005D01*
X156868747Y-73153366D01*
X156944998Y-73208766D01*
X156992291Y-73243126D01*
X157023248Y-73265618D01*
X157029276Y-73268302D01*
X157029278Y-73268303D01*
X157191681Y-73340609D01*
X157197712Y-73343294D01*
X157291113Y-73363147D01*
X157378056Y-73381628D01*
X157378061Y-73381628D01*
X157384513Y-73383000D01*
X157575487Y-73383000D01*
X157581939Y-73381628D01*
X157581944Y-73381628D01*
X157668887Y-73363147D01*
X157762288Y-73343294D01*
X157768319Y-73340609D01*
X157930722Y-73268303D01*
X157930724Y-73268302D01*
X157936752Y-73265618D01*
X157967710Y-73243126D01*
X158015002Y-73208766D01*
X158091253Y-73153366D01*
X158114088Y-73128005D01*
X158214621Y-73016352D01*
X158214622Y-73016351D01*
X158219040Y-73011444D01*
X158314527Y-72846056D01*
X158355458Y-72720084D01*
X158395532Y-72661478D01*
X158460928Y-72633841D01*
X158475291Y-72633020D01*
X162128000Y-72633020D01*
X162196121Y-72653022D01*
X162242614Y-72706678D01*
X162254000Y-72759020D01*
X162254000Y-72990500D01*
X162233998Y-73058621D01*
X162180342Y-73105114D01*
X162128000Y-73116500D01*
X161017000Y-73116500D01*
X161017000Y-73116395D01*
X160975746Y-73117869D01*
X160969453Y-73116500D01*
X159035115Y-73116500D01*
X159019876Y-73120975D01*
X159018671Y-73122365D01*
X159017000Y-73130048D01*
X159017000Y-73208766D01*
X159017337Y-73215282D01*
X159027075Y-73309132D01*
X159029968Y-73322528D01*
X159080488Y-73473953D01*
X159086653Y-73487115D01*
X159170426Y-73622492D01*
X159179460Y-73633890D01*
X159220840Y-73675198D01*
X159254919Y-73737481D01*
X159249916Y-73808301D01*
X159240942Y-73827370D01*
X159185473Y-73923444D01*
X159126458Y-74105072D01*
X159125768Y-74111633D01*
X159125768Y-74111635D01*
X159114307Y-74220684D01*
X159106496Y-74295000D01*
X159126345Y-74483852D01*
X159126458Y-74484928D01*
X159126284Y-74484946D01*
X159122814Y-74547517D01*
X159102026Y-74610191D01*
X159101325Y-74617033D01*
X159099882Y-74623762D01*
X159097308Y-74623210D01*
X159074989Y-74677874D01*
X159065576Y-74688405D01*
X156998236Y-76755745D01*
X156989950Y-76763285D01*
X156983471Y-76767397D01*
X156978046Y-76773174D01*
X156936846Y-76817048D01*
X156934091Y-76819890D01*
X156914354Y-76839627D01*
X156911874Y-76842824D01*
X156904171Y-76851844D01*
X156873903Y-76884076D01*
X156870084Y-76891022D01*
X156870082Y-76891025D01*
X156864141Y-76901831D01*
X156853290Y-76918350D01*
X156840875Y-76934356D01*
X156837730Y-76941625D01*
X156837727Y-76941629D01*
X156823315Y-76974934D01*
X156818098Y-76985584D01*
X156796794Y-77024337D01*
X156794823Y-77032012D01*
X156794823Y-77032013D01*
X156791756Y-77043959D01*
X156785352Y-77062663D01*
X156777308Y-77081252D01*
X156776069Y-77089075D01*
X156776066Y-77089085D01*
X156770390Y-77124921D01*
X156767984Y-77136541D01*
X156756989Y-77179367D01*
X156756989Y-77199621D01*
X156755438Y-77219331D01*
X156752269Y-77239340D01*
X156753015Y-77247232D01*
X156756430Y-77283358D01*
X156756989Y-77295216D01*
X156756989Y-77795035D01*
X156736987Y-77863156D01*
X156683331Y-77909649D01*
X156613057Y-77919753D01*
X156579740Y-77910142D01*
X156498319Y-77873891D01*
X156498318Y-77873891D01*
X156492288Y-77871206D01*
X156398888Y-77851353D01*
X156311944Y-77832872D01*
X156311939Y-77832872D01*
X156305487Y-77831500D01*
X156114513Y-77831500D01*
X156108061Y-77832872D01*
X156108056Y-77832872D01*
X156021112Y-77851353D01*
X155927712Y-77871206D01*
X155921682Y-77873891D01*
X155921681Y-77873891D01*
X155759278Y-77946197D01*
X155759276Y-77946198D01*
X155753248Y-77948882D01*
X155747907Y-77952762D01*
X155747906Y-77952763D01*
X155703920Y-77984721D01*
X155598747Y-78061134D01*
X155594326Y-78066044D01*
X155594325Y-78066045D01*
X155591944Y-78068690D01*
X155470960Y-78203056D01*
X155375473Y-78368444D01*
X155316458Y-78550072D01*
X155315768Y-78556633D01*
X155315768Y-78556635D01*
X155299093Y-78715292D01*
X155272080Y-78780949D01*
X155262878Y-78791217D01*
X154714500Y-79339595D01*
X154652188Y-79373621D01*
X154625405Y-79376500D01*
X153743200Y-79376500D01*
X153675079Y-79356498D01*
X153655853Y-79340157D01*
X153655580Y-79340460D01*
X153650668Y-79336037D01*
X153646253Y-79331134D01*
X153491752Y-79218882D01*
X153485724Y-79216198D01*
X153485722Y-79216197D01*
X153323319Y-79143891D01*
X153323318Y-79143891D01*
X153317288Y-79141206D01*
X153208885Y-79118164D01*
X153136944Y-79102872D01*
X153136939Y-79102872D01*
X153130487Y-79101500D01*
X152939513Y-79101500D01*
X152933061Y-79102872D01*
X152933056Y-79102872D01*
X152861115Y-79118164D01*
X152752712Y-79141206D01*
X152746682Y-79143891D01*
X152746681Y-79143891D01*
X152584278Y-79216197D01*
X152584276Y-79216198D01*
X152578248Y-79218882D01*
X152423747Y-79331134D01*
X152419326Y-79336044D01*
X152419325Y-79336045D01*
X152337451Y-79426976D01*
X152295960Y-79473056D01*
X152292659Y-79478774D01*
X152217615Y-79608754D01*
X152200473Y-79638444D01*
X152141458Y-79820072D01*
X152140768Y-79826633D01*
X152140768Y-79826635D01*
X152139161Y-79841927D01*
X152121496Y-80010000D01*
X152122186Y-80016565D01*
X152138187Y-80168803D01*
X152141458Y-80199928D01*
X152200473Y-80381556D01*
X152203776Y-80387278D01*
X152203777Y-80387279D01*
X152222256Y-80419285D01*
X152295960Y-80546944D01*
X152300378Y-80551851D01*
X152300379Y-80551852D01*
X152415350Y-80679540D01*
X152423747Y-80688866D01*
X152578248Y-80801118D01*
X152584276Y-80803802D01*
X152584278Y-80803803D01*
X152746681Y-80876109D01*
X152752712Y-80878794D01*
X152846112Y-80898647D01*
X152933056Y-80917128D01*
X152933061Y-80917128D01*
X152939513Y-80918500D01*
X153130487Y-80918500D01*
X153136939Y-80917128D01*
X153136944Y-80917128D01*
X153223888Y-80898647D01*
X153317288Y-80878794D01*
X153323319Y-80876109D01*
X153485722Y-80803803D01*
X153485724Y-80803802D01*
X153491752Y-80801118D01*
X153646253Y-80688866D01*
X153650668Y-80683963D01*
X153655580Y-80679540D01*
X153656705Y-80680789D01*
X153710014Y-80647949D01*
X153743200Y-80643500D01*
X154861233Y-80643500D01*
X154872416Y-80644027D01*
X154879909Y-80645702D01*
X154887835Y-80645453D01*
X154887836Y-80645453D01*
X154947986Y-80643562D01*
X154951945Y-80643500D01*
X154979856Y-80643500D01*
X154983791Y-80643003D01*
X154983856Y-80642995D01*
X154995693Y-80642062D01*
X155027951Y-80641048D01*
X155031970Y-80640922D01*
X155039889Y-80640673D01*
X155059343Y-80635021D01*
X155078700Y-80631013D01*
X155090930Y-80629468D01*
X155090931Y-80629468D01*
X155098797Y-80628474D01*
X155106168Y-80625555D01*
X155106170Y-80625555D01*
X155139912Y-80612196D01*
X155151142Y-80608351D01*
X155185983Y-80598229D01*
X155185984Y-80598229D01*
X155193593Y-80596018D01*
X155200412Y-80591985D01*
X155200417Y-80591983D01*
X155211028Y-80585707D01*
X155228776Y-80577012D01*
X155247617Y-80569552D01*
X155283387Y-80543564D01*
X155293307Y-80537048D01*
X155324535Y-80518580D01*
X155324538Y-80518578D01*
X155331362Y-80514542D01*
X155345683Y-80500221D01*
X155360717Y-80487380D01*
X155377107Y-80475472D01*
X155405298Y-80441395D01*
X155413288Y-80432616D01*
X156160499Y-79685405D01*
X156222811Y-79651379D01*
X156249594Y-79648500D01*
X156305487Y-79648500D01*
X156311939Y-79647128D01*
X156311944Y-79647128D01*
X156482735Y-79610825D01*
X156553526Y-79616227D01*
X156610159Y-79659044D01*
X156628765Y-79695135D01*
X156645473Y-79746556D01*
X156740960Y-79911944D01*
X156745378Y-79916851D01*
X156745379Y-79916852D01*
X156863508Y-80048048D01*
X156868747Y-80053866D01*
X157023248Y-80166118D01*
X157029276Y-80168802D01*
X157029278Y-80168803D01*
X157191681Y-80241109D01*
X157197712Y-80243794D01*
X157302324Y-80266030D01*
X157319232Y-80269624D01*
X157381705Y-80303353D01*
X157416027Y-80365502D01*
X157411299Y-80436341D01*
X157382130Y-80481966D01*
X153497524Y-84366571D01*
X149634500Y-88229595D01*
X149572188Y-88263621D01*
X149545405Y-88266500D01*
X139773200Y-88266500D01*
X139705079Y-88246498D01*
X139685853Y-88230157D01*
X139685580Y-88230460D01*
X139680668Y-88226037D01*
X139676253Y-88221134D01*
X139521752Y-88108882D01*
X139515724Y-88106198D01*
X139515722Y-88106197D01*
X139353319Y-88033891D01*
X139353318Y-88033891D01*
X139347288Y-88031206D01*
X139253887Y-88011353D01*
X139166944Y-87992872D01*
X139166939Y-87992872D01*
X139160487Y-87991500D01*
X138969513Y-87991500D01*
X138963061Y-87992872D01*
X138963056Y-87992872D01*
X138876112Y-88011353D01*
X138782712Y-88031206D01*
X138776682Y-88033891D01*
X138776681Y-88033891D01*
X138614278Y-88106197D01*
X138614276Y-88106198D01*
X138608248Y-88108882D01*
X138453747Y-88221134D01*
X138449326Y-88226044D01*
X138449325Y-88226045D01*
X138337716Y-88350000D01*
X138325960Y-88363056D01*
X138322661Y-88368769D01*
X138322658Y-88368774D01*
X138265016Y-88468613D01*
X138213633Y-88517607D01*
X138143919Y-88531042D01*
X138078009Y-88504655D01*
X138042891Y-88461342D01*
X138007413Y-88389400D01*
X138004859Y-88384221D01*
X137875816Y-88211412D01*
X137745915Y-88091332D01*
X137709470Y-88030404D01*
X137711751Y-87959444D01*
X137750874Y-87901934D01*
X137828912Y-87837030D01*
X137833344Y-87833344D01*
X137971255Y-87667525D01*
X138076638Y-87479350D01*
X138104033Y-87398647D01*
X138144108Y-87280591D01*
X138144109Y-87280586D01*
X138145964Y-87275122D01*
X138146792Y-87269413D01*
X138146793Y-87269408D01*
X138165531Y-87140175D01*
X138176912Y-87061679D01*
X138178527Y-87000000D01*
X138158792Y-86785231D01*
X138100250Y-86577654D01*
X138004859Y-86384221D01*
X137875816Y-86211412D01*
X137717442Y-86065012D01*
X137712559Y-86061931D01*
X137712555Y-86061928D01*
X137539923Y-85953006D01*
X137535040Y-85949925D01*
X137334720Y-85870005D01*
X137329060Y-85868879D01*
X137329056Y-85868878D01*
X137128857Y-85829056D01*
X137128854Y-85829056D01*
X137123190Y-85827929D01*
X137117415Y-85827853D01*
X137117411Y-85827853D01*
X137009320Y-85826438D01*
X136907534Y-85825106D01*
X136901837Y-85826085D01*
X136901836Y-85826085D01*
X136857362Y-85833727D01*
X136694975Y-85861630D01*
X136492631Y-85936279D01*
X136487670Y-85939231D01*
X136487669Y-85939231D01*
X136312247Y-86043596D01*
X136312244Y-86043598D01*
X136307279Y-86046552D01*
X136302939Y-86050358D01*
X136302935Y-86050361D01*
X136149468Y-86184949D01*
X136145127Y-86188756D01*
X136011604Y-86358128D01*
X136008913Y-86363244D01*
X136008911Y-86363246D01*
X135997876Y-86384221D01*
X135911183Y-86548997D01*
X135847227Y-86754970D01*
X135821877Y-86969150D01*
X135835983Y-87184362D01*
X135889072Y-87393400D01*
X135979366Y-87589263D01*
X135982699Y-87593979D01*
X136097032Y-87755757D01*
X136103841Y-87765392D01*
X136254471Y-87912129D01*
X136289307Y-87973988D01*
X136285170Y-88044864D01*
X136249625Y-88097113D01*
X136149473Y-88184944D01*
X136149469Y-88184948D01*
X136145127Y-88188756D01*
X136011604Y-88358128D01*
X136008913Y-88363244D01*
X136008911Y-88363246D01*
X135913875Y-88543880D01*
X135911183Y-88548997D01*
X135909470Y-88554514D01*
X135859785Y-88714528D01*
X135847227Y-88754970D01*
X135821877Y-88969150D01*
X135835983Y-89184362D01*
X135889072Y-89393400D01*
X135979366Y-89589263D01*
X135982699Y-89593979D01*
X136086600Y-89740996D01*
X136103841Y-89765392D01*
X136254471Y-89912129D01*
X136289307Y-89973988D01*
X136285170Y-90044864D01*
X136249625Y-90097113D01*
X136149473Y-90184944D01*
X136149469Y-90184948D01*
X136145127Y-90188756D01*
X136011604Y-90358128D01*
X136008913Y-90363244D01*
X136008911Y-90363246D01*
X135998871Y-90382329D01*
X135911183Y-90548997D01*
X135847227Y-90754970D01*
X135821877Y-90969150D01*
X135835983Y-91184362D01*
X135889072Y-91393400D01*
X135979366Y-91589263D01*
X136103841Y-91765392D01*
X136107983Y-91769427D01*
X136169046Y-91828912D01*
X136258329Y-91915887D01*
X136437656Y-92035710D01*
X136442959Y-92037988D01*
X136442962Y-92037990D01*
X136532918Y-92076638D01*
X136635815Y-92120846D01*
X136738618Y-92144108D01*
X136840535Y-92167170D01*
X136840538Y-92167170D01*
X136846171Y-92168445D01*
X136851942Y-92168672D01*
X136851944Y-92168672D01*
X136918822Y-92171299D01*
X137061679Y-92176912D01*
X137168400Y-92161438D01*
X137269408Y-92146793D01*
X137269413Y-92146792D01*
X137275122Y-92145964D01*
X137280586Y-92144109D01*
X137280591Y-92144108D01*
X137473882Y-92078494D01*
X137479350Y-92076638D01*
X137667525Y-91971255D01*
X137833344Y-91833344D01*
X137971255Y-91667525D01*
X138076638Y-91479350D01*
X138107715Y-91387800D01*
X138144108Y-91280591D01*
X138144109Y-91280586D01*
X138145964Y-91275122D01*
X138146792Y-91269413D01*
X138146793Y-91269408D01*
X138176379Y-91065353D01*
X138176912Y-91061679D01*
X138178527Y-91000000D01*
X138158792Y-90785231D01*
X138156081Y-90775616D01*
X138111029Y-90615874D01*
X138100250Y-90577654D01*
X138004859Y-90384221D01*
X137875816Y-90211412D01*
X137780200Y-90123025D01*
X137745915Y-90091332D01*
X137709470Y-90030404D01*
X137711361Y-89971585D01*
X167286698Y-89971585D01*
X167286887Y-89975377D01*
X167297406Y-90186670D01*
X167302936Y-90297759D01*
X167303577Y-90301490D01*
X167303578Y-90301498D01*
X167356604Y-90610091D01*
X167358241Y-90619619D01*
X167359329Y-90623258D01*
X167359330Y-90623261D01*
X167443001Y-90903034D01*
X167451814Y-90932504D01*
X167453327Y-90935975D01*
X167453329Y-90935981D01*
X167502136Y-91047962D01*
X167582297Y-91231881D01*
X167584220Y-91235152D01*
X167584222Y-91235156D01*
X167626584Y-91307215D01*
X167747802Y-91513414D01*
X167750103Y-91516429D01*
X167943631Y-91770012D01*
X167943636Y-91770017D01*
X167945931Y-91773025D01*
X168007931Y-91836670D01*
X168141787Y-91974076D01*
X168173814Y-92006953D01*
X168304186Y-92111962D01*
X168425196Y-92209431D01*
X168425201Y-92209435D01*
X168428149Y-92211809D01*
X168705253Y-92384627D01*
X169001112Y-92522903D01*
X169311440Y-92624634D01*
X169631742Y-92688346D01*
X169635514Y-92688633D01*
X169635522Y-92688634D01*
X169953602Y-92712829D01*
X169953607Y-92712829D01*
X169957379Y-92713116D01*
X170283633Y-92698586D01*
X170343425Y-92688634D01*
X170602037Y-92645590D01*
X170602042Y-92645589D01*
X170605778Y-92644967D01*
X170919149Y-92553034D01*
X170922616Y-92551544D01*
X170922620Y-92551543D01*
X171215721Y-92425616D01*
X171215723Y-92425615D01*
X171219205Y-92424119D01*
X171501601Y-92260091D01*
X171762245Y-92063324D01*
X171997363Y-91836670D01*
X172135069Y-91667525D01*
X172201155Y-91586351D01*
X172201158Y-91586347D01*
X172203549Y-91583410D01*
X172320126Y-91398647D01*
X172375788Y-91310428D01*
X172375790Y-91310425D01*
X172377815Y-91307215D01*
X172517638Y-91012084D01*
X172521670Y-91000000D01*
X172619790Y-90705897D01*
X172619792Y-90705891D01*
X172620992Y-90702293D01*
X172686381Y-90382329D01*
X172687934Y-90363246D01*
X172712674Y-90059061D01*
X172712856Y-90056826D01*
X172713451Y-90000000D01*
X172711510Y-89967796D01*
X172694026Y-89677793D01*
X172694026Y-89677789D01*
X172693798Y-89674015D01*
X172688650Y-89645824D01*
X172635805Y-89356473D01*
X172635804Y-89356469D01*
X172635125Y-89352751D01*
X172627722Y-89328907D01*
X172539404Y-89044477D01*
X172538282Y-89040863D01*
X172404670Y-88742869D01*
X172236226Y-88463084D01*
X172233899Y-88460100D01*
X172233894Y-88460093D01*
X172037726Y-88208558D01*
X172037724Y-88208556D01*
X172035390Y-88205563D01*
X171805070Y-87974034D01*
X171548603Y-87771852D01*
X171269705Y-87601945D01*
X171266261Y-87600379D01*
X171266257Y-87600377D01*
X171155667Y-87550095D01*
X170972414Y-87466775D01*
X170661037Y-87368300D01*
X170443492Y-87327390D01*
X170343809Y-87308645D01*
X170343807Y-87308645D01*
X170340086Y-87307945D01*
X170014208Y-87286586D01*
X170010428Y-87286794D01*
X170010427Y-87286794D01*
X169912897Y-87292162D01*
X169688124Y-87304532D01*
X169684397Y-87305193D01*
X169684393Y-87305193D01*
X169527340Y-87333027D01*
X169366557Y-87361522D01*
X169362941Y-87362624D01*
X169362933Y-87362626D01*
X169057789Y-87455627D01*
X169054167Y-87456731D01*
X168755477Y-87588781D01*
X168730041Y-87603914D01*
X168478074Y-87753817D01*
X168478068Y-87753821D01*
X168474814Y-87755757D01*
X168471812Y-87758073D01*
X168267257Y-87915887D01*
X168216244Y-87955243D01*
X167983513Y-88184347D01*
X167981149Y-88187314D01*
X167981146Y-88187317D01*
X167845033Y-88358128D01*
X167779991Y-88439751D01*
X167608626Y-88717757D01*
X167471902Y-89014336D01*
X167470741Y-89017940D01*
X167470741Y-89017941D01*
X167462196Y-89044477D01*
X167371797Y-89325192D01*
X167371079Y-89328903D01*
X167371078Y-89328907D01*
X167310482Y-89642105D01*
X167310481Y-89642114D01*
X167309763Y-89645824D01*
X167309496Y-89649600D01*
X167309495Y-89649605D01*
X167286966Y-89967796D01*
X167286698Y-89971585D01*
X137711361Y-89971585D01*
X137711751Y-89959444D01*
X137750874Y-89901934D01*
X137828912Y-89837030D01*
X137833344Y-89833344D01*
X137971255Y-89667525D01*
X138076638Y-89479350D01*
X138088628Y-89444027D01*
X138129465Y-89385952D01*
X138195217Y-89359173D01*
X138265010Y-89372194D01*
X138317059Y-89421527D01*
X138325960Y-89436944D01*
X138330378Y-89441851D01*
X138330379Y-89441852D01*
X138412452Y-89533003D01*
X138453747Y-89578866D01*
X138540788Y-89642105D01*
X138581884Y-89671963D01*
X138608248Y-89691118D01*
X138614276Y-89693802D01*
X138614278Y-89693803D01*
X138775071Y-89765392D01*
X138782712Y-89768794D01*
X138876112Y-89788647D01*
X138963056Y-89807128D01*
X138963061Y-89807128D01*
X138969513Y-89808500D01*
X139160487Y-89808500D01*
X139166939Y-89807128D01*
X139166944Y-89807128D01*
X139253887Y-89788647D01*
X139347288Y-89768794D01*
X139354929Y-89765392D01*
X139515722Y-89693803D01*
X139515724Y-89693802D01*
X139521752Y-89691118D01*
X139548117Y-89671963D01*
X139669162Y-89584018D01*
X139676253Y-89578866D01*
X139680668Y-89573963D01*
X139685580Y-89569540D01*
X139686705Y-89570789D01*
X139740014Y-89537949D01*
X139773200Y-89533500D01*
X149781233Y-89533500D01*
X149792416Y-89534027D01*
X149799909Y-89535702D01*
X149807835Y-89535453D01*
X149807836Y-89535453D01*
X149867986Y-89533562D01*
X149871945Y-89533500D01*
X149899856Y-89533500D01*
X149903791Y-89533003D01*
X149903856Y-89532995D01*
X149915693Y-89532062D01*
X149947951Y-89531048D01*
X149951970Y-89530922D01*
X149959889Y-89530673D01*
X149979343Y-89525021D01*
X149998700Y-89521013D01*
X150010930Y-89519468D01*
X150010931Y-89519468D01*
X150018797Y-89518474D01*
X150026168Y-89515555D01*
X150026170Y-89515555D01*
X150059912Y-89502196D01*
X150071142Y-89498351D01*
X150105983Y-89488229D01*
X150105984Y-89488229D01*
X150113593Y-89486018D01*
X150120412Y-89481985D01*
X150120417Y-89481983D01*
X150131028Y-89475707D01*
X150148776Y-89467012D01*
X150167617Y-89459552D01*
X150203387Y-89433564D01*
X150213307Y-89427048D01*
X150244535Y-89408580D01*
X150244538Y-89408578D01*
X150251362Y-89404542D01*
X150265683Y-89390221D01*
X150280717Y-89377380D01*
X150290694Y-89370131D01*
X150297107Y-89365472D01*
X150325298Y-89331395D01*
X150333288Y-89322616D01*
X159299450Y-80356455D01*
X159361762Y-80322429D01*
X159388545Y-80319550D01*
X159444437Y-80319550D01*
X159450889Y-80318178D01*
X159450894Y-80318178D01*
X159537838Y-80299697D01*
X159631238Y-80279844D01*
X159637269Y-80277159D01*
X159799672Y-80204853D01*
X159799674Y-80204852D01*
X159805702Y-80202168D01*
X159829942Y-80184557D01*
X159954236Y-80094251D01*
X159960203Y-80089916D01*
X159964625Y-80085004D01*
X159969527Y-80080591D01*
X159970406Y-80081567D01*
X160024823Y-80048048D01*
X160095807Y-80049405D01*
X160147099Y-80080506D01*
X160977878Y-80911285D01*
X161011904Y-80973597D01*
X161014093Y-80987210D01*
X161026045Y-81100924D01*
X161031458Y-81152430D01*
X161090473Y-81334058D01*
X161093776Y-81339780D01*
X161093777Y-81339781D01*
X161114478Y-81375636D01*
X161185960Y-81499446D01*
X161190378Y-81504353D01*
X161190379Y-81504354D01*
X161257906Y-81579350D01*
X161313747Y-81641368D01*
X161468248Y-81753620D01*
X161474276Y-81756304D01*
X161474278Y-81756305D01*
X161636681Y-81828611D01*
X161642712Y-81831296D01*
X161736112Y-81851149D01*
X161823056Y-81869630D01*
X161823061Y-81869630D01*
X161829513Y-81871002D01*
X162020487Y-81871002D01*
X162026939Y-81869630D01*
X162026944Y-81869630D01*
X162113888Y-81851149D01*
X162207288Y-81831296D01*
X162213319Y-81828611D01*
X162375722Y-81756305D01*
X162375724Y-81756304D01*
X162381752Y-81753620D01*
X162536253Y-81641368D01*
X162592094Y-81579350D01*
X162659621Y-81504354D01*
X162659622Y-81504353D01*
X162664040Y-81499446D01*
X162735522Y-81375636D01*
X162756223Y-81339781D01*
X162756224Y-81339780D01*
X162759527Y-81334058D01*
X162818542Y-81152430D01*
X162823956Y-81100924D01*
X162837814Y-80969067D01*
X162838504Y-80962502D01*
X162826424Y-80847570D01*
X162819232Y-80779137D01*
X162819232Y-80779135D01*
X162818542Y-80772574D01*
X162759527Y-80590946D01*
X162746402Y-80568212D01*
X162715415Y-80514542D01*
X162664040Y-80425558D01*
X162629574Y-80387279D01*
X162540675Y-80288547D01*
X162540674Y-80288546D01*
X162536253Y-80283636D01*
X162381752Y-80171384D01*
X162375724Y-80168700D01*
X162375722Y-80168699D01*
X162213319Y-80096393D01*
X162213318Y-80096393D01*
X162207288Y-80093708D01*
X162113888Y-80073855D01*
X162026944Y-80055374D01*
X162026939Y-80055374D01*
X162020487Y-80054002D01*
X161964594Y-80054002D01*
X161896473Y-80034000D01*
X161875499Y-80017097D01*
X160732509Y-78874106D01*
X159571150Y-77712747D01*
X159563610Y-77704461D01*
X159559498Y-77697982D01*
X159547112Y-77686351D01*
X159511146Y-77625138D01*
X159513983Y-77554198D01*
X159554723Y-77496054D01*
X159620431Y-77469165D01*
X159633364Y-77468500D01*
X160581800Y-77468500D01*
X160649921Y-77488502D01*
X160669147Y-77504843D01*
X160669420Y-77504540D01*
X160674332Y-77508963D01*
X160678747Y-77513866D01*
X160700329Y-77529546D01*
X160814798Y-77612713D01*
X160833248Y-77626118D01*
X160839276Y-77628802D01*
X160839278Y-77628803D01*
X160968534Y-77686351D01*
X161007712Y-77703794D01*
X161101113Y-77723647D01*
X161188056Y-77742128D01*
X161188061Y-77742128D01*
X161194513Y-77743500D01*
X161385487Y-77743500D01*
X161391939Y-77742128D01*
X161391944Y-77742128D01*
X161478887Y-77723647D01*
X161572288Y-77703794D01*
X161611466Y-77686351D01*
X161740722Y-77628803D01*
X161740724Y-77628802D01*
X161746752Y-77626118D01*
X161765203Y-77612713D01*
X161802157Y-77585864D01*
X161901253Y-77513866D01*
X162029040Y-77371944D01*
X162101043Y-77247232D01*
X162106388Y-77237974D01*
X162157771Y-77188981D01*
X162227484Y-77175545D01*
X162266754Y-77185867D01*
X162386555Y-77239205D01*
X162479955Y-77259058D01*
X162566899Y-77277539D01*
X162566904Y-77277539D01*
X162573356Y-77278911D01*
X162764330Y-77278911D01*
X162770782Y-77277539D01*
X162770787Y-77277539D01*
X162857731Y-77259058D01*
X162951131Y-77239205D01*
X162995767Y-77219332D01*
X163119565Y-77164214D01*
X163119567Y-77164213D01*
X163125595Y-77161529D01*
X163280096Y-77049277D01*
X163308802Y-77017396D01*
X163403464Y-76912263D01*
X163403465Y-76912262D01*
X163407883Y-76907355D01*
X163466157Y-76806421D01*
X163500066Y-76747690D01*
X163500067Y-76747689D01*
X163503370Y-76741967D01*
X163562385Y-76560339D01*
X163580190Y-76390934D01*
X163586608Y-76375334D01*
X163584604Y-76372216D01*
X163580190Y-76349888D01*
X163563075Y-76187046D01*
X163563075Y-76187044D01*
X163562385Y-76180483D01*
X163503370Y-75998855D01*
X163495007Y-75984369D01*
X163411184Y-75839185D01*
X163407883Y-75833467D01*
X163369195Y-75790499D01*
X163284518Y-75696456D01*
X163284517Y-75696455D01*
X163280096Y-75691545D01*
X163125595Y-75579293D01*
X163119567Y-75576609D01*
X163119565Y-75576608D01*
X162972255Y-75511022D01*
X162918159Y-75465042D01*
X162897510Y-75397115D01*
X162898160Y-75383073D01*
X162907672Y-75290232D01*
X162908000Y-75283815D01*
X162908000Y-75272115D01*
X162903525Y-75256876D01*
X162902135Y-75255671D01*
X162894452Y-75254000D01*
X161734500Y-75254000D01*
X161666379Y-75233998D01*
X161619886Y-75180342D01*
X161608500Y-75128000D01*
X161608500Y-74872000D01*
X161628502Y-74803879D01*
X161682158Y-74757386D01*
X161734500Y-74746000D01*
X162889885Y-74746000D01*
X162905124Y-74741525D01*
X162906329Y-74740135D01*
X162908000Y-74732452D01*
X162908000Y-74716234D01*
X162907663Y-74709718D01*
X162897925Y-74615868D01*
X162895032Y-74602472D01*
X162844512Y-74451047D01*
X162838347Y-74437885D01*
X162754574Y-74302508D01*
X162745540Y-74291110D01*
X162632871Y-74178637D01*
X162621457Y-74169623D01*
X162483283Y-74084452D01*
X162435789Y-74031680D01*
X162424365Y-73961609D01*
X162452639Y-73896485D01*
X162509521Y-73857669D01*
X162548948Y-73844515D01*
X162562115Y-73838347D01*
X162697492Y-73754574D01*
X162708890Y-73745540D01*
X162821363Y-73632871D01*
X162830375Y-73621460D01*
X162885922Y-73531345D01*
X162938694Y-73483852D01*
X163008765Y-73472428D01*
X163073889Y-73500702D01*
X163082277Y-73508366D01*
X163794595Y-74220684D01*
X163828621Y-74282996D01*
X163831500Y-74309779D01*
X163831500Y-76336718D01*
X163822449Y-76367545D01*
X163829444Y-76381437D01*
X163831500Y-76404104D01*
X163831500Y-80334974D01*
X163811498Y-80403095D01*
X163799142Y-80419277D01*
X163725960Y-80500554D01*
X163690325Y-80562275D01*
X163637095Y-80654473D01*
X163630473Y-80665942D01*
X163571458Y-80847570D01*
X163551496Y-81037498D01*
X163552186Y-81044063D01*
X163564236Y-81158708D01*
X163571458Y-81227426D01*
X163630473Y-81409054D01*
X163725960Y-81574442D01*
X163730378Y-81579349D01*
X163730379Y-81579350D01*
X163835177Y-81695740D01*
X163853747Y-81716364D01*
X164008248Y-81828616D01*
X164014276Y-81831300D01*
X164014278Y-81831301D01*
X164149367Y-81891446D01*
X164182712Y-81906292D01*
X164276113Y-81926145D01*
X164363056Y-81944626D01*
X164363061Y-81944626D01*
X164369513Y-81945998D01*
X164560487Y-81945998D01*
X164566939Y-81944626D01*
X164566944Y-81944626D01*
X164653888Y-81926145D01*
X164747288Y-81906292D01*
X164780633Y-81891446D01*
X164915722Y-81831301D01*
X164915724Y-81831300D01*
X164921752Y-81828616D01*
X165076253Y-81716364D01*
X165094823Y-81695740D01*
X165199621Y-81579350D01*
X165199622Y-81579349D01*
X165204040Y-81574442D01*
X165299527Y-81409054D01*
X165312635Y-81368712D01*
X165352709Y-81310106D01*
X165418105Y-81282469D01*
X165488062Y-81294576D01*
X165541587Y-81344648D01*
X165559478Y-81375636D01*
X165630960Y-81499446D01*
X165635378Y-81504353D01*
X165635379Y-81504354D01*
X165702906Y-81579350D01*
X165758747Y-81641368D01*
X165913248Y-81753620D01*
X165919276Y-81756304D01*
X165919278Y-81756305D01*
X166081681Y-81828611D01*
X166087712Y-81831296D01*
X166181112Y-81851149D01*
X166268056Y-81869630D01*
X166268061Y-81869630D01*
X166274513Y-81871002D01*
X166465487Y-81871002D01*
X166471939Y-81869630D01*
X166471944Y-81869630D01*
X166558888Y-81851149D01*
X166652288Y-81831296D01*
X166658319Y-81828611D01*
X166820722Y-81756305D01*
X166820724Y-81756304D01*
X166826752Y-81753620D01*
X166981253Y-81641368D01*
X167037094Y-81579350D01*
X167104621Y-81504354D01*
X167104622Y-81504353D01*
X167109040Y-81499446D01*
X167174551Y-81385978D01*
X167201226Y-81339776D01*
X167201227Y-81339774D01*
X167204527Y-81334058D01*
X167206567Y-81327779D01*
X167207394Y-81325922D01*
X167253374Y-81271827D01*
X167321301Y-81251178D01*
X167389609Y-81270531D01*
X167437606Y-81325922D01*
X167438433Y-81327779D01*
X167440473Y-81334058D01*
X167443773Y-81339774D01*
X167443774Y-81339776D01*
X167470449Y-81385978D01*
X167535960Y-81499446D01*
X167540378Y-81504353D01*
X167540379Y-81504354D01*
X167607906Y-81579350D01*
X167663747Y-81641368D01*
X167818248Y-81753620D01*
X167824276Y-81756304D01*
X167824278Y-81756305D01*
X167986681Y-81828611D01*
X167992712Y-81831296D01*
X168086112Y-81851149D01*
X168173056Y-81869630D01*
X168173061Y-81869630D01*
X168179513Y-81871002D01*
X168370487Y-81871002D01*
X168376939Y-81869630D01*
X168376944Y-81869630D01*
X168463888Y-81851149D01*
X168557288Y-81831296D01*
X168563319Y-81828611D01*
X168725722Y-81756305D01*
X168725724Y-81756304D01*
X168731752Y-81753620D01*
X168886253Y-81641368D01*
X168942094Y-81579350D01*
X169009621Y-81504354D01*
X169009622Y-81504353D01*
X169014040Y-81499446D01*
X169085522Y-81375636D01*
X169106223Y-81339781D01*
X169106224Y-81339780D01*
X169109527Y-81334058D01*
X169168542Y-81152430D01*
X169173956Y-81100924D01*
X169187814Y-80969067D01*
X169188504Y-80962502D01*
X169176424Y-80847570D01*
X169169232Y-80779137D01*
X169169232Y-80779135D01*
X169168542Y-80772574D01*
X169109527Y-80590946D01*
X169096402Y-80568212D01*
X169065415Y-80514542D01*
X169014040Y-80425558D01*
X168940863Y-80344287D01*
X168910147Y-80280281D01*
X168908500Y-80259978D01*
X168908500Y-75643768D01*
X168909027Y-75632585D01*
X168910702Y-75625092D01*
X168908562Y-75557001D01*
X168908500Y-75553044D01*
X168908500Y-75525144D01*
X168907996Y-75521153D01*
X168907063Y-75509311D01*
X168906822Y-75501617D01*
X168905674Y-75465111D01*
X168900021Y-75445652D01*
X168896012Y-75426293D01*
X168895187Y-75419762D01*
X168893474Y-75406203D01*
X168890558Y-75398837D01*
X168890556Y-75398831D01*
X168877200Y-75365098D01*
X168873355Y-75353868D01*
X168863230Y-75319017D01*
X168863230Y-75319016D01*
X168861019Y-75311407D01*
X168850705Y-75293966D01*
X168842008Y-75276213D01*
X168837472Y-75264758D01*
X168834552Y-75257383D01*
X168808563Y-75221612D01*
X168802047Y-75211692D01*
X168783578Y-75180463D01*
X168779542Y-75173638D01*
X168765221Y-75159317D01*
X168752380Y-75144283D01*
X168745131Y-75134306D01*
X168740472Y-75127893D01*
X168706395Y-75099702D01*
X168697616Y-75091712D01*
X165412122Y-71806217D01*
X165378096Y-71743905D01*
X165375907Y-71730292D01*
X165359232Y-71571635D01*
X165359232Y-71571633D01*
X165358542Y-71565072D01*
X165299527Y-71383444D01*
X165291100Y-71368847D01*
X165216721Y-71240020D01*
X165204040Y-71218056D01*
X165076253Y-71076134D01*
X164921752Y-70963882D01*
X164915724Y-70961198D01*
X164915722Y-70961197D01*
X164753319Y-70888891D01*
X164753318Y-70888891D01*
X164747288Y-70886206D01*
X164653888Y-70866353D01*
X164566944Y-70847872D01*
X164566939Y-70847872D01*
X164560487Y-70846500D01*
X164499989Y-70846500D01*
X164431868Y-70826498D01*
X164385375Y-70772842D01*
X164373989Y-70720500D01*
X164373989Y-70422672D01*
X164393991Y-70354551D01*
X164447647Y-70308058D01*
X164517921Y-70297954D01*
X164573961Y-70320671D01*
X164771724Y-70464090D01*
X164775751Y-70467136D01*
X165543850Y-71072656D01*
X165547724Y-71075838D01*
X166165420Y-71604334D01*
X166290910Y-71711702D01*
X166294683Y-71715064D01*
X166322931Y-71741268D01*
X167011716Y-72380208D01*
X167015354Y-72383721D01*
X167705123Y-73077111D01*
X167708618Y-73080768D01*
X168370010Y-73801287D01*
X168373351Y-73805076D01*
X168979611Y-74521218D01*
X169005292Y-74551554D01*
X169008476Y-74555471D01*
X169609955Y-75326716D01*
X169612980Y-75330759D01*
X169729773Y-75493594D01*
X170183032Y-76125533D01*
X170185896Y-76129701D01*
X170723575Y-76946686D01*
X170726270Y-76950966D01*
X171230718Y-77788851D01*
X171233240Y-77793235D01*
X171408804Y-78113245D01*
X171682047Y-78611301D01*
X171703683Y-78650739D01*
X171706022Y-78655214D01*
X172110452Y-79468148D01*
X172141670Y-79530899D01*
X172143824Y-79535458D01*
X172246450Y-79764345D01*
X172543973Y-80427912D01*
X172545949Y-80432568D01*
X172909951Y-81340340D01*
X172911739Y-81345071D01*
X173106963Y-81894840D01*
X173239020Y-82266727D01*
X173240617Y-82271526D01*
X173530656Y-83205606D01*
X173532058Y-83210465D01*
X173676583Y-83751726D01*
X173771696Y-84107933D01*
X173784372Y-84155407D01*
X173785563Y-84160254D01*
X173999764Y-85114622D01*
X174000767Y-85119553D01*
X174176489Y-86081715D01*
X174177297Y-86086707D01*
X174314257Y-87055095D01*
X174314865Y-87060116D01*
X174369623Y-87603914D01*
X174412511Y-88029834D01*
X174412854Y-88033243D01*
X174413259Y-88038272D01*
X174469727Y-88974916D01*
X174472117Y-89014566D01*
X174472319Y-89019605D01*
X174490723Y-89936351D01*
X174491962Y-89998091D01*
X174491980Y-90001919D01*
X174488842Y-90301498D01*
X174486648Y-90510997D01*
X174486549Y-90514843D01*
X174483743Y-90583219D01*
X174446968Y-91479350D01*
X174446421Y-91492678D01*
X174446113Y-91497704D01*
X174384104Y-92260091D01*
X174366823Y-92472550D01*
X174366312Y-92477581D01*
X174247967Y-93448424D01*
X174247255Y-93453432D01*
X174090038Y-94418781D01*
X174089125Y-94423755D01*
X173893298Y-95381997D01*
X173892186Y-95386931D01*
X173658060Y-96336542D01*
X173656751Y-96341427D01*
X173384706Y-97280874D01*
X173383202Y-97285701D01*
X173316015Y-97487089D01*
X173073670Y-98213486D01*
X173071978Y-98218238D01*
X172949776Y-98540785D01*
X172725463Y-99132848D01*
X172723577Y-99137540D01*
X172340633Y-100037515D01*
X172338559Y-100042129D01*
X171919820Y-100925980D01*
X171917564Y-100930506D01*
X171769976Y-101212217D01*
X171511574Y-101705447D01*
X171463672Y-101796880D01*
X171461239Y-101801305D01*
X171079667Y-102463541D01*
X170972956Y-102648742D01*
X170970344Y-102653072D01*
X170448450Y-103480225D01*
X170445666Y-103484448D01*
X169890975Y-104290021D01*
X169888023Y-104294128D01*
X169301469Y-105076766D01*
X169298355Y-105080751D01*
X168680880Y-105839201D01*
X168677609Y-105843059D01*
X168585649Y-105947184D01*
X168192370Y-106392488D01*
X168030170Y-106576144D01*
X168026747Y-106579867D01*
X167350402Y-107286386D01*
X167346832Y-107289968D01*
X166642691Y-107968762D01*
X166638980Y-107972198D01*
X165908175Y-108622179D01*
X165904329Y-108625464D01*
X165148025Y-109245594D01*
X165144051Y-109248722D01*
X165001320Y-109356473D01*
X164580693Y-109674015D01*
X164363455Y-109838013D01*
X164359358Y-109840979D01*
X163555725Y-110398478D01*
X163551512Y-110401276D01*
X163371121Y-110515977D01*
X162726184Y-110926057D01*
X162721894Y-110928665D01*
X162076092Y-111303777D01*
X161876149Y-111419913D01*
X161871735Y-111422360D01*
X161006951Y-111879274D01*
X161002442Y-111881541D01*
X160188197Y-112270789D01*
X160120049Y-112303367D01*
X160115448Y-112305455D01*
X159223575Y-112688634D01*
X159216792Y-112691548D01*
X159212113Y-112693447D01*
X158490415Y-112969759D01*
X158298746Y-113043142D01*
X158293987Y-113044856D01*
X157367283Y-113357627D01*
X157362459Y-113359148D01*
X156423967Y-113634471D01*
X156419087Y-113635797D01*
X155470275Y-113873242D01*
X155465380Y-113874363D01*
X155033751Y-113964142D01*
X154507805Y-114073539D01*
X154502834Y-114074469D01*
X153538064Y-114235051D01*
X153533059Y-114235781D01*
X152562629Y-114357514D01*
X152557599Y-114358043D01*
X151870898Y-114416311D01*
X151583033Y-114440736D01*
X151577992Y-114441062D01*
X150600929Y-114484576D01*
X150595876Y-114484700D01*
X150258113Y-114486174D01*
X149617811Y-114488967D01*
X149612754Y-114488887D01*
X149567365Y-114487262D01*
X148635345Y-114453901D01*
X148630318Y-114453621D01*
X148210931Y-114421719D01*
X147655061Y-114379435D01*
X147650027Y-114378950D01*
X146678577Y-114265690D01*
X146673566Y-114265004D01*
X145707414Y-114112845D01*
X145702435Y-114111958D01*
X144743186Y-113921151D01*
X144738246Y-113920065D01*
X143787405Y-113690911D01*
X143782513Y-113689627D01*
X142841684Y-113422512D01*
X142836847Y-113421034D01*
X141907433Y-113116357D01*
X141902660Y-113114685D01*
X140986264Y-112772970D01*
X140981561Y-112771108D01*
X140632260Y-112624634D01*
X140079595Y-112392882D01*
X140074994Y-112390843D01*
X139188920Y-111976718D01*
X139184393Y-111974490D01*
X138315673Y-111525150D01*
X138311240Y-111522743D01*
X137461243Y-111038896D01*
X137456902Y-111036309D01*
X137423571Y-111015522D01*
X136626989Y-110518728D01*
X136622788Y-110515989D01*
X135823225Y-109971585D01*
X147286698Y-109971585D01*
X147302936Y-110297759D01*
X147303577Y-110301490D01*
X147303578Y-110301498D01*
X147340907Y-110518739D01*
X147358241Y-110619619D01*
X147359329Y-110623258D01*
X147359330Y-110623261D01*
X147380069Y-110692605D01*
X147451814Y-110932504D01*
X147582297Y-111231881D01*
X147584220Y-111235152D01*
X147584222Y-111235156D01*
X147626584Y-111307215D01*
X147747802Y-111513414D01*
X147750103Y-111516429D01*
X147943631Y-111770012D01*
X147943636Y-111770017D01*
X147945931Y-111773025D01*
X148173814Y-112006953D01*
X148246635Y-112065607D01*
X148425196Y-112209431D01*
X148425201Y-112209435D01*
X148428149Y-112211809D01*
X148705253Y-112384627D01*
X149001112Y-112522903D01*
X149311440Y-112624634D01*
X149631742Y-112688346D01*
X149635514Y-112688633D01*
X149635522Y-112688634D01*
X149953602Y-112712829D01*
X149953607Y-112712829D01*
X149957379Y-112713116D01*
X150283633Y-112698586D01*
X150343425Y-112688634D01*
X150602037Y-112645590D01*
X150602042Y-112645589D01*
X150605778Y-112644967D01*
X150919149Y-112553034D01*
X150922616Y-112551544D01*
X150922620Y-112551543D01*
X151215721Y-112425616D01*
X151215723Y-112425615D01*
X151219205Y-112424119D01*
X151501601Y-112260091D01*
X151762245Y-112063324D01*
X151997363Y-111836670D01*
X152203549Y-111583410D01*
X152377815Y-111307215D01*
X152517638Y-111012084D01*
X152544188Y-110932504D01*
X152619790Y-110705897D01*
X152619792Y-110705891D01*
X152620992Y-110702293D01*
X152686381Y-110382329D01*
X152692956Y-110301498D01*
X152712674Y-110059061D01*
X152712856Y-110056826D01*
X152713451Y-110000000D01*
X152711510Y-109967796D01*
X152694026Y-109677793D01*
X152694026Y-109677789D01*
X152693798Y-109674015D01*
X152688650Y-109645824D01*
X152635805Y-109356473D01*
X152635804Y-109356469D01*
X152635125Y-109352751D01*
X152627722Y-109328907D01*
X152539404Y-109044477D01*
X152538282Y-109040863D01*
X152404670Y-108742869D01*
X152236226Y-108463084D01*
X152233899Y-108460100D01*
X152233894Y-108460093D01*
X152037726Y-108208558D01*
X152037724Y-108208556D01*
X152035390Y-108205563D01*
X151805070Y-107974034D01*
X151548603Y-107771852D01*
X151269705Y-107601945D01*
X151266261Y-107600379D01*
X151266257Y-107600377D01*
X151050094Y-107502094D01*
X150972414Y-107466775D01*
X150661037Y-107368300D01*
X150351631Y-107310116D01*
X150343809Y-107308645D01*
X150343807Y-107308645D01*
X150340086Y-107307945D01*
X150014208Y-107286586D01*
X150010428Y-107286794D01*
X150010427Y-107286794D01*
X149912897Y-107292162D01*
X149688124Y-107304532D01*
X149684397Y-107305193D01*
X149684393Y-107305193D01*
X149527341Y-107333027D01*
X149366557Y-107361522D01*
X149362941Y-107362624D01*
X149362933Y-107362626D01*
X149112534Y-107438942D01*
X149054167Y-107456731D01*
X148755477Y-107588781D01*
X148730041Y-107603914D01*
X148478074Y-107753817D01*
X148478068Y-107753821D01*
X148474814Y-107755757D01*
X148471812Y-107758073D01*
X148252221Y-107927487D01*
X148216244Y-107955243D01*
X148197156Y-107974034D01*
X148002291Y-108165862D01*
X147983513Y-108184347D01*
X147981149Y-108187314D01*
X147981146Y-108187317D01*
X147964220Y-108208558D01*
X147779991Y-108439751D01*
X147608626Y-108717757D01*
X147471902Y-109014336D01*
X147470741Y-109017940D01*
X147470741Y-109017941D01*
X147462196Y-109044477D01*
X147371797Y-109325192D01*
X147371079Y-109328903D01*
X147371078Y-109328907D01*
X147310482Y-109642105D01*
X147310481Y-109642114D01*
X147309763Y-109645824D01*
X147309496Y-109649600D01*
X147309495Y-109649605D01*
X147286966Y-109967796D01*
X147286698Y-109971585D01*
X135823225Y-109971585D01*
X135814354Y-109965545D01*
X135810232Y-109962616D01*
X135024514Y-109380153D01*
X135020512Y-109377061D01*
X134258811Y-108763544D01*
X134254937Y-108760293D01*
X134238969Y-108746338D01*
X133518477Y-108116704D01*
X133514742Y-108113306D01*
X133448500Y-108050554D01*
X132961041Y-107588781D01*
X132804704Y-107440682D01*
X132801103Y-107437131D01*
X132260109Y-106881784D01*
X132118630Y-106736552D01*
X132115177Y-106732862D01*
X131976025Y-106578046D01*
X131645545Y-106210367D01*
X131461367Y-106005457D01*
X131458062Y-106001628D01*
X130833971Y-105248570D01*
X130830823Y-105244612D01*
X130320460Y-104575877D01*
X130237458Y-104467118D01*
X130234477Y-104463046D01*
X130200041Y-104413957D01*
X130064241Y-104220374D01*
X160165483Y-104220374D01*
X160165489Y-104227690D01*
X160165489Y-104227693D01*
X160165544Y-104290021D01*
X160165637Y-104397245D01*
X160206476Y-104569337D01*
X160285810Y-104727417D01*
X160290152Y-104732750D01*
X160290153Y-104732752D01*
X160350076Y-104806356D01*
X160350082Y-104806362D01*
X160352107Y-104808850D01*
X161445217Y-105901960D01*
X161479243Y-105964272D01*
X161474178Y-106035087D01*
X161433955Y-106090140D01*
X161375925Y-106135724D01*
X161371993Y-106140255D01*
X161371990Y-106140258D01*
X161303319Y-106219395D01*
X161237293Y-106295483D01*
X161234293Y-106300669D01*
X161234290Y-106300673D01*
X161187157Y-106382146D01*
X161131372Y-106478574D01*
X161061984Y-106678391D01*
X161061123Y-106684326D01*
X161061123Y-106684328D01*
X161053551Y-106736555D01*
X161031632Y-106887724D01*
X161041412Y-107099019D01*
X161042816Y-107104844D01*
X161042816Y-107104845D01*
X161087431Y-107289968D01*
X161090970Y-107304654D01*
X161093452Y-107310112D01*
X161093453Y-107310116D01*
X161136898Y-107405666D01*
X161178519Y-107497207D01*
X161300899Y-107669731D01*
X161453695Y-107816001D01*
X161631393Y-107930740D01*
X161636959Y-107932983D01*
X161822013Y-108007562D01*
X161822016Y-108007563D01*
X161827582Y-108009806D01*
X162035182Y-108050348D01*
X162040744Y-108050620D01*
X162196691Y-108050620D01*
X162354411Y-108035572D01*
X162557379Y-107976028D01*
X162562707Y-107973284D01*
X162740094Y-107881924D01*
X162740097Y-107881922D01*
X162745425Y-107879178D01*
X162911765Y-107748516D01*
X162915697Y-107743985D01*
X162915700Y-107743982D01*
X163046466Y-107593287D01*
X163050397Y-107588757D01*
X163053397Y-107583571D01*
X163053400Y-107583567D01*
X163153312Y-107410862D01*
X163156318Y-107405666D01*
X163225706Y-107205849D01*
X163256058Y-106996516D01*
X163246278Y-106785221D01*
X163196720Y-106579586D01*
X163153370Y-106484242D01*
X163141929Y-106459079D01*
X163109171Y-106387033D01*
X162986791Y-106214509D01*
X162833995Y-106068239D01*
X162656297Y-105953500D01*
X162650729Y-105951256D01*
X162645414Y-105948501D01*
X162646097Y-105947184D01*
X162596089Y-105907670D01*
X162573023Y-105840525D01*
X162589921Y-105771568D01*
X162609799Y-105745725D01*
X163369897Y-104985627D01*
X163389574Y-104961394D01*
X163432583Y-104908427D01*
X163432585Y-104908424D01*
X163436925Y-104903079D01*
X163515983Y-104744860D01*
X163518834Y-104732752D01*
X163554844Y-104579822D01*
X163554844Y-104579818D01*
X163556521Y-104572698D01*
X163556367Y-104395827D01*
X163516863Y-104229361D01*
X163520595Y-104158463D01*
X163562066Y-104100837D01*
X163628108Y-104074780D01*
X163642425Y-104074303D01*
X163800391Y-104078026D01*
X163962651Y-104054210D01*
X164023214Y-104045321D01*
X164023216Y-104045321D01*
X164028493Y-104044546D01*
X164247693Y-103973112D01*
X164451724Y-103865767D01*
X164634750Y-103725579D01*
X164638382Y-103721664D01*
X164638386Y-103721660D01*
X164787912Y-103560468D01*
X164791540Y-103556557D01*
X164917611Y-103363535D01*
X165009356Y-103152030D01*
X165012151Y-103140606D01*
X165062885Y-102933275D01*
X165062886Y-102933269D01*
X165064153Y-102928091D01*
X165071930Y-102818257D01*
X165080059Y-102703448D01*
X165080059Y-102703445D01*
X165080436Y-102698120D01*
X165057739Y-102468695D01*
X165056327Y-102463550D01*
X165056325Y-102463541D01*
X165048146Y-102433747D01*
X165049402Y-102362762D01*
X165088837Y-102303724D01*
X165153929Y-102275379D01*
X165193797Y-102276730D01*
X165337676Y-102304827D01*
X165343009Y-102304953D01*
X165343012Y-102304953D01*
X165458563Y-102307676D01*
X165568158Y-102310259D01*
X165730418Y-102286443D01*
X165790981Y-102277554D01*
X165790983Y-102277554D01*
X165796260Y-102276779D01*
X166015460Y-102205345D01*
X166205221Y-102105508D01*
X166214768Y-102100485D01*
X166214769Y-102100484D01*
X166219491Y-102098000D01*
X166402517Y-101957812D01*
X166406149Y-101953897D01*
X166406153Y-101953893D01*
X166555679Y-101792701D01*
X166559307Y-101788790D01*
X166685378Y-101595768D01*
X166777123Y-101384263D01*
X166811592Y-101243398D01*
X166830652Y-101165508D01*
X166830653Y-101165502D01*
X166831920Y-101160324D01*
X166839305Y-101056024D01*
X166847826Y-100935681D01*
X166847826Y-100935678D01*
X166848203Y-100930353D01*
X166825506Y-100700928D01*
X166764477Y-100478606D01*
X166666861Y-100269746D01*
X166535451Y-100080318D01*
X166519178Y-100062435D01*
X166227818Y-99771075D01*
X166096006Y-99659882D01*
X165897259Y-99543045D01*
X165681668Y-99461364D01*
X165455396Y-99417177D01*
X165450063Y-99417051D01*
X165450060Y-99417051D01*
X165334509Y-99414328D01*
X165224914Y-99411745D01*
X165062654Y-99435561D01*
X165002091Y-99444450D01*
X165002089Y-99444450D01*
X164996812Y-99445225D01*
X164777612Y-99516659D01*
X164573581Y-99624004D01*
X164569344Y-99627250D01*
X164569343Y-99627250D01*
X164445357Y-99722217D01*
X164390555Y-99764192D01*
X164386923Y-99768107D01*
X164386919Y-99768111D01*
X164385768Y-99769352D01*
X164233765Y-99933214D01*
X164230848Y-99937680D01*
X164135457Y-100083730D01*
X164107694Y-100126236D01*
X164015949Y-100337741D01*
X164014681Y-100342923D01*
X163962420Y-100556496D01*
X163962419Y-100556502D01*
X163961152Y-100561680D01*
X163960775Y-100567004D01*
X163951293Y-100700928D01*
X163944869Y-100791651D01*
X163967566Y-101021076D01*
X163968978Y-101026221D01*
X163968980Y-101026230D01*
X163977159Y-101056024D01*
X163975903Y-101127009D01*
X163936468Y-101186047D01*
X163871376Y-101214392D01*
X163831508Y-101213041D01*
X163687629Y-101184944D01*
X163682296Y-101184818D01*
X163682293Y-101184818D01*
X163566742Y-101182095D01*
X163457147Y-101179512D01*
X163294887Y-101203328D01*
X163234324Y-101212217D01*
X163234322Y-101212217D01*
X163229045Y-101212992D01*
X163009845Y-101284426D01*
X163005126Y-101286909D01*
X162810779Y-101389159D01*
X162805814Y-101391771D01*
X162622788Y-101531959D01*
X162619156Y-101535874D01*
X162619152Y-101535878D01*
X162477945Y-101688102D01*
X162465998Y-101700981D01*
X162339927Y-101894003D01*
X162248182Y-102105508D01*
X162246914Y-102110690D01*
X162194653Y-102324263D01*
X162194652Y-102324269D01*
X162193385Y-102329447D01*
X162193008Y-102334771D01*
X162183526Y-102468695D01*
X162177102Y-102559418D01*
X162181640Y-102605284D01*
X162168442Y-102675043D01*
X162119625Y-102726593D01*
X162050687Y-102743567D01*
X162027373Y-102740336D01*
X161867511Y-102702694D01*
X161867507Y-102702694D01*
X161860387Y-102701017D01*
X161853071Y-102701023D01*
X161853068Y-102701023D01*
X161771761Y-102701094D01*
X161683517Y-102701171D01*
X161673922Y-102703448D01*
X161518546Y-102740320D01*
X161518545Y-102740320D01*
X161511425Y-102742010D01*
X161504886Y-102745292D01*
X161504885Y-102745292D01*
X161359495Y-102818257D01*
X161359491Y-102818260D01*
X161353345Y-102821344D01*
X161271911Y-102887641D01*
X160352107Y-103807445D01*
X160350061Y-103809965D01*
X160289421Y-103884645D01*
X160289419Y-103884648D01*
X160285079Y-103889993D01*
X160206021Y-104048212D01*
X160204343Y-104055338D01*
X160204342Y-104055341D01*
X160180061Y-104158463D01*
X160165483Y-104220374D01*
X130064241Y-104220374D01*
X129672780Y-103662347D01*
X129669983Y-103658185D01*
X129175818Y-102889919D01*
X129140869Y-102835585D01*
X129138219Y-102831277D01*
X128642557Y-101988129D01*
X128640082Y-101983718D01*
X128626220Y-101957812D01*
X128178656Y-101121356D01*
X128176366Y-101116861D01*
X128021378Y-100796964D01*
X127749925Y-100236685D01*
X127747812Y-100232092D01*
X127357027Y-99335488D01*
X127355100Y-99330812D01*
X127000622Y-98419273D01*
X126998884Y-98414524D01*
X126681267Y-97489476D01*
X126679721Y-97484660D01*
X126399490Y-96547633D01*
X126398138Y-96542759D01*
X126155730Y-95595209D01*
X126154584Y-95590323D01*
X125950387Y-94633763D01*
X125949437Y-94628826D01*
X125913774Y-94421275D01*
X125783806Y-93664905D01*
X125783050Y-93659904D01*
X125656236Y-92690121D01*
X125655681Y-92685094D01*
X125567889Y-91711000D01*
X125567536Y-91705955D01*
X125518906Y-90729111D01*
X125518756Y-90724056D01*
X125512372Y-90059061D01*
X125509367Y-89746040D01*
X125509420Y-89740996D01*
X125511581Y-89670289D01*
X125531727Y-89010891D01*
X125539289Y-88763403D01*
X125539545Y-88758352D01*
X125570469Y-88321585D01*
X127286698Y-88321585D01*
X127293010Y-88448365D01*
X127297765Y-88543880D01*
X127302936Y-88647759D01*
X127303577Y-88651490D01*
X127303578Y-88651498D01*
X127357175Y-88963415D01*
X127358241Y-88969619D01*
X127359329Y-88973258D01*
X127359330Y-88973261D01*
X127424139Y-89189964D01*
X127451814Y-89282504D01*
X127453327Y-89285975D01*
X127453329Y-89285981D01*
X127522214Y-89444028D01*
X127582297Y-89581881D01*
X127584220Y-89585152D01*
X127584222Y-89585156D01*
X127636460Y-89674015D01*
X127747802Y-89863414D01*
X127750103Y-89866429D01*
X127943631Y-90120012D01*
X127943636Y-90120017D01*
X127945931Y-90123025D01*
X128006250Y-90184944D01*
X128116150Y-90297759D01*
X128173814Y-90356953D01*
X128246635Y-90415607D01*
X128425196Y-90559431D01*
X128425201Y-90559435D01*
X128428149Y-90561809D01*
X128705253Y-90734627D01*
X129001112Y-90872903D01*
X129004721Y-90874086D01*
X129277217Y-90963415D01*
X129311440Y-90974634D01*
X129631742Y-91038346D01*
X129635514Y-91038633D01*
X129635522Y-91038634D01*
X129953602Y-91062829D01*
X129953607Y-91062829D01*
X129957379Y-91063116D01*
X130283633Y-91048586D01*
X130343425Y-91038634D01*
X130602037Y-90995590D01*
X130602042Y-90995589D01*
X130605778Y-90994967D01*
X130919149Y-90903034D01*
X130922616Y-90901544D01*
X130922620Y-90901543D01*
X131215721Y-90775616D01*
X131215723Y-90775615D01*
X131219205Y-90774119D01*
X131501601Y-90610091D01*
X131762245Y-90413324D01*
X131997363Y-90186670D01*
X132112811Y-90044864D01*
X132201155Y-89936351D01*
X132201158Y-89936347D01*
X132203549Y-89933410D01*
X132309108Y-89766109D01*
X132375788Y-89660428D01*
X132375790Y-89660425D01*
X132377815Y-89657215D01*
X132381421Y-89649605D01*
X132466199Y-89470659D01*
X132517638Y-89362084D01*
X132520752Y-89352751D01*
X132619790Y-89055897D01*
X132619792Y-89055891D01*
X132620992Y-89052293D01*
X132686381Y-88732329D01*
X132687567Y-88717757D01*
X132704899Y-88504655D01*
X132712856Y-88406826D01*
X132713366Y-88358128D01*
X132713428Y-88352221D01*
X132713428Y-88352214D01*
X132713451Y-88350000D01*
X132711738Y-88321585D01*
X132708327Y-88265000D01*
X133160996Y-88265000D01*
X133180958Y-88454928D01*
X133239973Y-88636556D01*
X133335460Y-88801944D01*
X133339878Y-88806851D01*
X133339879Y-88806852D01*
X133458825Y-88938955D01*
X133463247Y-88943866D01*
X133555499Y-89010891D01*
X133601726Y-89044477D01*
X133617748Y-89056118D01*
X133623776Y-89058802D01*
X133623778Y-89058803D01*
X133786181Y-89131109D01*
X133792212Y-89133794D01*
X133885613Y-89153647D01*
X133972556Y-89172128D01*
X133972561Y-89172128D01*
X133979013Y-89173500D01*
X134169987Y-89173500D01*
X134176439Y-89172128D01*
X134176444Y-89172128D01*
X134263387Y-89153647D01*
X134356788Y-89133794D01*
X134362819Y-89131109D01*
X134525222Y-89058803D01*
X134525224Y-89058802D01*
X134531252Y-89056118D01*
X134547275Y-89044477D01*
X134593501Y-89010891D01*
X134685753Y-88943866D01*
X134690175Y-88938955D01*
X134809121Y-88806852D01*
X134809122Y-88806851D01*
X134813540Y-88801944D01*
X134909027Y-88636556D01*
X134968042Y-88454928D01*
X134988004Y-88265000D01*
X134979247Y-88181681D01*
X134968732Y-88081635D01*
X134968732Y-88081633D01*
X134968042Y-88075072D01*
X134909027Y-87893444D01*
X134813540Y-87728056D01*
X134740363Y-87646785D01*
X134709647Y-87582779D01*
X134708000Y-87562476D01*
X134708000Y-84434692D01*
X134728002Y-84366571D01*
X134744905Y-84345597D01*
X139210298Y-79880204D01*
X139272610Y-79846178D01*
X139299393Y-79843299D01*
X139355286Y-79843299D01*
X139361738Y-79841927D01*
X139361743Y-79841927D01*
X139448687Y-79823446D01*
X139542087Y-79803593D01*
X139548118Y-79800908D01*
X139710521Y-79728602D01*
X139710523Y-79728601D01*
X139716551Y-79725917D01*
X139871052Y-79613665D01*
X139998839Y-79471743D01*
X140065376Y-79356498D01*
X140091022Y-79312078D01*
X140091023Y-79312077D01*
X140094326Y-79306355D01*
X140153341Y-79124727D01*
X140173303Y-78934799D01*
X140153341Y-78744871D01*
X140094326Y-78563243D01*
X139998839Y-78397855D01*
X139871052Y-78255933D01*
X139716551Y-78143681D01*
X139710523Y-78140997D01*
X139710521Y-78140996D01*
X139548118Y-78068690D01*
X139548117Y-78068690D01*
X139542087Y-78066005D01*
X139448686Y-78046152D01*
X139361743Y-78027671D01*
X139361738Y-78027671D01*
X139355286Y-78026299D01*
X139164312Y-78026299D01*
X139157860Y-78027671D01*
X139157855Y-78027671D01*
X139070912Y-78046152D01*
X138977511Y-78066005D01*
X138971481Y-78068690D01*
X138971480Y-78068690D01*
X138809077Y-78140996D01*
X138809075Y-78140997D01*
X138803047Y-78143681D01*
X138648546Y-78255933D01*
X138520759Y-78397855D01*
X138425272Y-78563243D01*
X138366257Y-78744871D01*
X138350361Y-78896118D01*
X138348892Y-78910091D01*
X138321879Y-78975748D01*
X138312677Y-78986016D01*
X133682247Y-83616446D01*
X133673961Y-83623986D01*
X133667482Y-83628098D01*
X133662057Y-83633875D01*
X133620857Y-83677749D01*
X133618102Y-83680591D01*
X133598365Y-83700328D01*
X133595885Y-83703525D01*
X133588182Y-83712545D01*
X133557914Y-83744777D01*
X133554095Y-83751723D01*
X133554093Y-83751726D01*
X133548152Y-83762532D01*
X133537301Y-83779051D01*
X133524886Y-83795057D01*
X133521741Y-83802326D01*
X133521738Y-83802330D01*
X133507326Y-83835635D01*
X133502109Y-83846285D01*
X133480805Y-83885038D01*
X133478834Y-83892713D01*
X133478834Y-83892714D01*
X133475767Y-83904660D01*
X133469363Y-83923364D01*
X133461319Y-83941953D01*
X133460080Y-83949776D01*
X133460077Y-83949786D01*
X133454401Y-83985622D01*
X133451995Y-83997242D01*
X133441000Y-84040068D01*
X133441000Y-84060322D01*
X133439449Y-84080032D01*
X133436280Y-84100041D01*
X133437026Y-84107933D01*
X133440441Y-84144059D01*
X133441000Y-84155917D01*
X133441000Y-87562476D01*
X133420998Y-87630597D01*
X133408642Y-87646779D01*
X133335460Y-87728056D01*
X133239973Y-87893444D01*
X133180958Y-88075072D01*
X133180268Y-88081633D01*
X133180268Y-88081635D01*
X133169753Y-88181681D01*
X133160996Y-88265000D01*
X132708327Y-88265000D01*
X132694026Y-88027792D01*
X132694025Y-88027787D01*
X132693798Y-88024015D01*
X132689510Y-88000532D01*
X132635805Y-87706473D01*
X132635804Y-87706469D01*
X132635125Y-87702751D01*
X132627722Y-87678907D01*
X132539404Y-87394477D01*
X132538282Y-87390863D01*
X132404670Y-87092869D01*
X132236226Y-86813084D01*
X132233899Y-86810100D01*
X132233894Y-86810093D01*
X132037726Y-86558558D01*
X132037724Y-86558556D01*
X132035390Y-86555563D01*
X131805070Y-86324034D01*
X131548603Y-86121852D01*
X131269705Y-85951945D01*
X131266261Y-85950379D01*
X131266257Y-85950377D01*
X131089487Y-85870005D01*
X130972414Y-85816775D01*
X130661037Y-85718300D01*
X130443492Y-85677390D01*
X130343809Y-85658645D01*
X130343807Y-85658645D01*
X130340086Y-85657945D01*
X130014208Y-85636586D01*
X130010428Y-85636794D01*
X130010427Y-85636794D01*
X129912897Y-85642162D01*
X129688124Y-85654532D01*
X129684397Y-85655193D01*
X129684393Y-85655193D01*
X129527340Y-85683027D01*
X129366557Y-85711522D01*
X129362941Y-85712624D01*
X129362933Y-85712626D01*
X129057789Y-85805627D01*
X129054167Y-85806731D01*
X128755477Y-85938781D01*
X128731567Y-85953006D01*
X128478074Y-86103817D01*
X128478068Y-86103821D01*
X128474814Y-86105757D01*
X128471812Y-86108073D01*
X128331865Y-86216042D01*
X128216244Y-86305243D01*
X127983513Y-86534347D01*
X127981149Y-86537314D01*
X127981146Y-86537317D01*
X127783593Y-86785231D01*
X127779991Y-86789751D01*
X127608626Y-87067757D01*
X127471902Y-87364336D01*
X127470741Y-87367940D01*
X127470741Y-87367941D01*
X127462196Y-87394477D01*
X127371797Y-87675192D01*
X127371079Y-87678903D01*
X127371078Y-87678907D01*
X127310482Y-87992105D01*
X127310481Y-87992114D01*
X127309763Y-87995824D01*
X127309496Y-87999600D01*
X127309495Y-87999605D01*
X127286966Y-88317796D01*
X127286698Y-88321585D01*
X125570469Y-88321585D01*
X125608620Y-87782760D01*
X125609078Y-87777723D01*
X125717252Y-86805669D01*
X125717912Y-86800655D01*
X125865010Y-85833727D01*
X125865871Y-85828743D01*
X126051652Y-84868508D01*
X126052712Y-84863563D01*
X126276882Y-83911546D01*
X126278140Y-83906647D01*
X126355650Y-83628098D01*
X126540334Y-82964400D01*
X126541784Y-82959565D01*
X126841587Y-82028583D01*
X126843234Y-82023801D01*
X126985365Y-81636457D01*
X127180150Y-81105616D01*
X127181979Y-81100924D01*
X127186604Y-81089733D01*
X127555484Y-80196975D01*
X127557507Y-80192345D01*
X127608577Y-80081567D01*
X127754818Y-79764345D01*
X127966969Y-79304155D01*
X127969178Y-79299605D01*
X128413968Y-78428536D01*
X128416358Y-78424079D01*
X128596200Y-78104258D01*
X131281600Y-78104258D01*
X131281606Y-78111574D01*
X131281606Y-78111577D01*
X131281677Y-78192885D01*
X131281754Y-78281129D01*
X131322593Y-78453221D01*
X131401927Y-78611301D01*
X131406269Y-78616634D01*
X131406270Y-78616636D01*
X131466193Y-78690240D01*
X131466199Y-78690246D01*
X131468224Y-78692734D01*
X132561334Y-79785844D01*
X132595360Y-79848156D01*
X132590295Y-79918971D01*
X132550072Y-79974024D01*
X132492042Y-80019608D01*
X132488110Y-80024139D01*
X132488107Y-80024142D01*
X132419436Y-80103279D01*
X132353410Y-80179367D01*
X132350410Y-80184553D01*
X132350407Y-80184557D01*
X132281682Y-80303353D01*
X132247489Y-80362458D01*
X132178101Y-80562275D01*
X132177240Y-80568210D01*
X132177240Y-80568212D01*
X132159184Y-80692745D01*
X132147749Y-80771608D01*
X132157529Y-80982903D01*
X132158933Y-80988728D01*
X132158933Y-80988729D01*
X132172269Y-81044063D01*
X132207087Y-81188538D01*
X132209569Y-81193996D01*
X132209570Y-81194000D01*
X132253015Y-81289550D01*
X132294636Y-81381091D01*
X132417016Y-81553615D01*
X132569812Y-81699885D01*
X132747510Y-81814624D01*
X132782229Y-81828616D01*
X132938130Y-81891446D01*
X132938133Y-81891447D01*
X132943699Y-81893690D01*
X133151299Y-81934232D01*
X133156861Y-81934504D01*
X133312808Y-81934504D01*
X133470528Y-81919456D01*
X133673496Y-81859912D01*
X133729048Y-81831301D01*
X133856211Y-81765808D01*
X133856214Y-81765806D01*
X133861542Y-81763062D01*
X134027882Y-81632400D01*
X134031814Y-81627869D01*
X134031817Y-81627866D01*
X134162583Y-81477171D01*
X134166514Y-81472641D01*
X134169514Y-81467455D01*
X134169517Y-81467451D01*
X134269429Y-81294746D01*
X134272435Y-81289550D01*
X134341823Y-81089733D01*
X134372175Y-80880400D01*
X134362395Y-80669105D01*
X134317295Y-80481966D01*
X134314243Y-80469303D01*
X134314242Y-80469301D01*
X134312837Y-80463470D01*
X134303391Y-80442693D01*
X134230382Y-80282121D01*
X134225288Y-80270917D01*
X134102908Y-80098393D01*
X133950112Y-79952123D01*
X133772414Y-79837384D01*
X133766846Y-79835140D01*
X133761531Y-79832385D01*
X133762214Y-79831068D01*
X133712206Y-79791554D01*
X133689140Y-79724409D01*
X133706038Y-79655452D01*
X133725916Y-79629609D01*
X134486014Y-78869511D01*
X134505691Y-78845278D01*
X134548700Y-78792311D01*
X134548702Y-78792308D01*
X134553042Y-78786963D01*
X134632100Y-78628744D01*
X134634951Y-78616636D01*
X134670961Y-78463706D01*
X134670961Y-78463702D01*
X134672638Y-78456582D01*
X134672484Y-78279711D01*
X134632980Y-78113245D01*
X134636712Y-78042347D01*
X134678183Y-77984721D01*
X134744225Y-77958664D01*
X134758542Y-77958187D01*
X134916508Y-77961910D01*
X135078768Y-77938094D01*
X135139331Y-77929205D01*
X135139333Y-77929205D01*
X135144610Y-77928430D01*
X135363810Y-77856996D01*
X135567841Y-77749651D01*
X135750867Y-77609463D01*
X135754499Y-77605548D01*
X135754503Y-77605544D01*
X135904029Y-77444352D01*
X135907657Y-77440441D01*
X136033728Y-77247419D01*
X136037233Y-77239340D01*
X136089580Y-77118660D01*
X136125473Y-77035914D01*
X136137786Y-76985595D01*
X136179002Y-76817159D01*
X136179003Y-76817153D01*
X136180270Y-76811975D01*
X136185672Y-76735682D01*
X136196176Y-76587332D01*
X136196176Y-76587329D01*
X136196553Y-76582004D01*
X136182304Y-76437974D01*
X136174382Y-76357892D01*
X136174381Y-76357888D01*
X136173856Y-76352579D01*
X136172444Y-76347434D01*
X136172442Y-76347425D01*
X136164263Y-76317631D01*
X136165519Y-76246646D01*
X136204954Y-76187608D01*
X136270046Y-76159263D01*
X136309914Y-76160614D01*
X136453793Y-76188711D01*
X136459126Y-76188837D01*
X136459129Y-76188837D01*
X136574680Y-76191560D01*
X136684275Y-76194143D01*
X136846535Y-76170327D01*
X136907098Y-76161438D01*
X136907100Y-76161438D01*
X136912377Y-76160663D01*
X137021977Y-76124946D01*
X137126505Y-76090882D01*
X137126506Y-76090882D01*
X137131577Y-76089229D01*
X137321338Y-75989392D01*
X137330885Y-75984369D01*
X137330886Y-75984368D01*
X137335608Y-75981884D01*
X137347241Y-75972974D01*
X137514391Y-75844946D01*
X137514392Y-75844945D01*
X137518634Y-75841696D01*
X137522266Y-75837781D01*
X137522270Y-75837777D01*
X137671796Y-75676585D01*
X137675424Y-75672674D01*
X137774388Y-75521154D01*
X137798573Y-75484126D01*
X137798574Y-75484125D01*
X137801495Y-75479652D01*
X137807803Y-75465111D01*
X137856057Y-75353868D01*
X137893240Y-75268147D01*
X137917670Y-75168310D01*
X137946769Y-75049392D01*
X137946770Y-75049386D01*
X137948037Y-75044208D01*
X137955422Y-74939908D01*
X137963943Y-74819565D01*
X137963943Y-74819562D01*
X137964320Y-74814237D01*
X137947671Y-74645943D01*
X137942149Y-74590125D01*
X137942148Y-74590121D01*
X137941623Y-74584812D01*
X137940211Y-74579667D01*
X137940209Y-74579658D01*
X137932030Y-74549864D01*
X137933286Y-74478879D01*
X137972721Y-74419841D01*
X138037813Y-74391496D01*
X138077681Y-74392847D01*
X138221560Y-74420944D01*
X138226893Y-74421070D01*
X138226896Y-74421070D01*
X138342447Y-74423793D01*
X138452042Y-74426376D01*
X138614302Y-74402560D01*
X138674865Y-74393671D01*
X138674867Y-74393671D01*
X138680144Y-74392896D01*
X138899344Y-74321462D01*
X139079255Y-74226807D01*
X139098652Y-74216602D01*
X139098653Y-74216601D01*
X139103375Y-74214117D01*
X139107613Y-74210871D01*
X139282158Y-74077179D01*
X139282159Y-74077178D01*
X139286401Y-74073929D01*
X139290033Y-74070014D01*
X139290037Y-74070010D01*
X139439563Y-73908818D01*
X139443191Y-73904907D01*
X139546743Y-73746363D01*
X139566340Y-73716359D01*
X139566341Y-73716358D01*
X139569262Y-73711885D01*
X139661007Y-73500380D01*
X139688873Y-73386500D01*
X139714536Y-73281625D01*
X139714537Y-73281619D01*
X139715804Y-73276441D01*
X139724866Y-73148455D01*
X139731710Y-73051798D01*
X139731710Y-73051795D01*
X139732087Y-73046470D01*
X139716868Y-72892634D01*
X139709916Y-72822358D01*
X139709915Y-72822354D01*
X139709390Y-72817045D01*
X139648361Y-72594723D01*
X139629374Y-72554097D01*
X139580236Y-72448962D01*
X139550745Y-72385863D01*
X139419335Y-72196435D01*
X139403062Y-72178552D01*
X139111702Y-71887192D01*
X138979890Y-71775999D01*
X138974832Y-71773025D01*
X138912904Y-71736620D01*
X138781143Y-71659162D01*
X138565552Y-71577481D01*
X138339280Y-71533294D01*
X138333947Y-71533168D01*
X138333944Y-71533168D01*
X138218393Y-71530445D01*
X138108798Y-71527862D01*
X137946538Y-71551678D01*
X137885975Y-71560567D01*
X137885973Y-71560567D01*
X137880696Y-71561342D01*
X137661496Y-71632776D01*
X137565309Y-71683382D01*
X137508372Y-71713338D01*
X137457465Y-71740121D01*
X137453228Y-71743367D01*
X137453227Y-71743367D01*
X137335261Y-71833723D01*
X137274439Y-71880309D01*
X137270807Y-71884224D01*
X137270803Y-71884228D01*
X137129596Y-72036452D01*
X137117649Y-72049331D01*
X137114732Y-72053797D01*
X137011528Y-72211809D01*
X136991578Y-72242353D01*
X136989452Y-72247254D01*
X136989451Y-72247256D01*
X136970418Y-72291135D01*
X136899833Y-72453858D01*
X136898565Y-72459040D01*
X136846304Y-72672613D01*
X136846303Y-72672619D01*
X136845036Y-72677797D01*
X136844659Y-72683121D01*
X136829699Y-72894413D01*
X136828753Y-72907768D01*
X136829279Y-72913081D01*
X136849846Y-73120975D01*
X136851450Y-73137193D01*
X136852862Y-73142338D01*
X136852864Y-73142347D01*
X136861043Y-73172141D01*
X136859787Y-73243126D01*
X136820352Y-73302164D01*
X136755260Y-73330509D01*
X136715392Y-73329158D01*
X136571513Y-73301061D01*
X136566180Y-73300935D01*
X136566177Y-73300935D01*
X136450626Y-73298212D01*
X136341031Y-73295629D01*
X136178771Y-73319445D01*
X136118208Y-73328334D01*
X136118206Y-73328334D01*
X136112929Y-73329109D01*
X135893729Y-73400543D01*
X135777995Y-73461433D01*
X135694663Y-73505276D01*
X135689698Y-73507888D01*
X135685461Y-73511134D01*
X135685460Y-73511134D01*
X135556642Y-73609802D01*
X135506672Y-73648076D01*
X135503040Y-73651991D01*
X135503036Y-73651995D01*
X135423762Y-73737454D01*
X135349882Y-73817098D01*
X135346965Y-73821564D01*
X135255496Y-73961609D01*
X135223811Y-74010120D01*
X135132066Y-74221625D01*
X135130798Y-74226807D01*
X135078537Y-74440380D01*
X135078536Y-74440386D01*
X135077269Y-74445564D01*
X135076892Y-74450888D01*
X135065613Y-74610191D01*
X135060986Y-74675535D01*
X135083683Y-74904960D01*
X135085095Y-74910105D01*
X135085097Y-74910114D01*
X135093276Y-74939908D01*
X135092020Y-75010893D01*
X135052585Y-75069931D01*
X134987493Y-75098276D01*
X134947625Y-75096925D01*
X134803746Y-75068828D01*
X134798413Y-75068702D01*
X134798410Y-75068702D01*
X134682859Y-75065979D01*
X134573264Y-75063396D01*
X134411004Y-75087212D01*
X134350441Y-75096101D01*
X134350439Y-75096101D01*
X134345162Y-75096876D01*
X134265484Y-75122842D01*
X134153558Y-75159317D01*
X134125962Y-75168310D01*
X134121243Y-75170793D01*
X133926896Y-75273043D01*
X133921931Y-75275655D01*
X133917694Y-75278901D01*
X133917693Y-75278901D01*
X133911278Y-75283815D01*
X133738905Y-75415843D01*
X133735273Y-75419758D01*
X133735269Y-75419762D01*
X133659338Y-75501617D01*
X133582115Y-75584865D01*
X133456044Y-75777887D01*
X133364299Y-75989392D01*
X133363031Y-75994574D01*
X133310770Y-76208147D01*
X133310769Y-76208153D01*
X133309502Y-76213331D01*
X133309125Y-76218655D01*
X133299643Y-76352579D01*
X133293219Y-76443302D01*
X133297757Y-76489168D01*
X133284559Y-76558927D01*
X133235742Y-76610477D01*
X133166804Y-76627451D01*
X133143490Y-76624220D01*
X132983628Y-76586578D01*
X132983624Y-76586578D01*
X132976504Y-76584901D01*
X132969188Y-76584907D01*
X132969185Y-76584907D01*
X132887878Y-76584978D01*
X132799634Y-76585055D01*
X132790039Y-76587332D01*
X132634663Y-76624204D01*
X132634662Y-76624204D01*
X132627542Y-76625894D01*
X132621003Y-76629176D01*
X132621002Y-76629176D01*
X132475612Y-76702141D01*
X132475608Y-76702144D01*
X132469462Y-76705228D01*
X132464127Y-76709571D01*
X132464126Y-76709572D01*
X132393099Y-76767397D01*
X132388028Y-76771525D01*
X131468224Y-77691329D01*
X131466178Y-77693849D01*
X131405538Y-77768529D01*
X131405536Y-77768532D01*
X131401196Y-77773877D01*
X131322138Y-77932096D01*
X131320460Y-77939222D01*
X131320459Y-77939225D01*
X131290598Y-78066045D01*
X131281600Y-78104258D01*
X128596200Y-78104258D01*
X128895739Y-77571576D01*
X128898306Y-77567218D01*
X129305050Y-76907355D01*
X129411524Y-76734622D01*
X129414260Y-76730378D01*
X129428268Y-76709572D01*
X129821465Y-76125533D01*
X129960462Y-75919073D01*
X129963370Y-75914935D01*
X130353347Y-75383073D01*
X130541706Y-75126184D01*
X130544773Y-75122173D01*
X130586467Y-75069851D01*
X131002695Y-74547517D01*
X131154286Y-74357282D01*
X131157516Y-74353391D01*
X131602875Y-73838347D01*
X131797251Y-73613557D01*
X131800632Y-73609802D01*
X131874180Y-73531345D01*
X132469533Y-72896249D01*
X132473061Y-72892634D01*
X132520377Y-72846056D01*
X133170054Y-72206504D01*
X133173729Y-72203029D01*
X133210425Y-72169697D01*
X133897707Y-71545412D01*
X133901476Y-71542124D01*
X134457808Y-71076134D01*
X134651287Y-70914074D01*
X134655229Y-70910905D01*
X135429581Y-70313496D01*
X135433646Y-70310487D01*
X135911410Y-69971585D01*
X147286698Y-69971585D01*
X147286887Y-69975377D01*
X147298330Y-70205229D01*
X147302936Y-70297759D01*
X147303577Y-70301490D01*
X147303578Y-70301498D01*
X147340067Y-70513850D01*
X147358241Y-70619619D01*
X147359329Y-70623258D01*
X147359330Y-70623261D01*
X147448520Y-70921489D01*
X147451814Y-70932504D01*
X147453327Y-70935975D01*
X147453329Y-70935981D01*
X147512893Y-71072642D01*
X147582297Y-71231881D01*
X147584220Y-71235152D01*
X147584222Y-71235156D01*
X147626584Y-71307215D01*
X147747802Y-71513414D01*
X147750103Y-71516429D01*
X147943631Y-71770012D01*
X147943636Y-71770017D01*
X147945931Y-71773025D01*
X148007931Y-71836670D01*
X148111781Y-71943274D01*
X148173814Y-72006953D01*
X148292990Y-72102944D01*
X148425196Y-72209431D01*
X148425201Y-72209435D01*
X148428149Y-72211809D01*
X148705253Y-72384627D01*
X149001112Y-72522903D01*
X149311440Y-72624634D01*
X149631742Y-72688346D01*
X149635514Y-72688633D01*
X149635522Y-72688634D01*
X149953602Y-72712829D01*
X149953607Y-72712829D01*
X149957379Y-72713116D01*
X150283633Y-72698586D01*
X150343425Y-72688634D01*
X150602037Y-72645590D01*
X150602042Y-72645589D01*
X150605778Y-72644967D01*
X150919149Y-72553034D01*
X150922616Y-72551544D01*
X150922620Y-72551543D01*
X151215721Y-72425616D01*
X151215723Y-72425615D01*
X151219205Y-72424119D01*
X151501601Y-72260091D01*
X151762245Y-72063324D01*
X151942988Y-71889088D01*
X151994632Y-71839303D01*
X151994635Y-71839300D01*
X151997363Y-71836670D01*
X152143415Y-71657273D01*
X152201155Y-71586351D01*
X152201158Y-71586347D01*
X152203549Y-71583410D01*
X152207935Y-71576458D01*
X152375788Y-71310428D01*
X152375790Y-71310425D01*
X152377815Y-71307215D01*
X152417347Y-71223774D01*
X152516009Y-71015522D01*
X152517638Y-71012084D01*
X152532425Y-70967763D01*
X152619790Y-70705897D01*
X152619792Y-70705891D01*
X152620992Y-70702293D01*
X152686381Y-70382329D01*
X152686799Y-70377197D01*
X152712674Y-70059061D01*
X152712856Y-70056826D01*
X152713451Y-70000000D01*
X152711510Y-69967796D01*
X152694026Y-69677793D01*
X152694026Y-69677789D01*
X152693798Y-69674015D01*
X152688650Y-69645824D01*
X152635805Y-69356473D01*
X152635804Y-69356469D01*
X152635125Y-69352751D01*
X152627722Y-69328907D01*
X152539404Y-69044477D01*
X152538282Y-69040863D01*
X152532681Y-69028370D01*
X152406225Y-68746338D01*
X152404670Y-68742869D01*
X152236226Y-68463084D01*
X152233899Y-68460100D01*
X152233894Y-68460093D01*
X152037726Y-68208558D01*
X152037724Y-68208556D01*
X152035390Y-68205563D01*
X151805070Y-67974034D01*
X151548603Y-67771852D01*
X151269705Y-67601945D01*
X151266261Y-67600379D01*
X151266257Y-67600377D01*
X151155667Y-67550095D01*
X150972414Y-67466775D01*
X150661037Y-67368300D01*
X150385925Y-67316565D01*
X150343809Y-67308645D01*
X150343807Y-67308645D01*
X150340086Y-67307945D01*
X150014208Y-67286586D01*
X150010428Y-67286794D01*
X150010427Y-67286794D01*
X149912897Y-67292162D01*
X149688124Y-67304532D01*
X149684397Y-67305193D01*
X149684393Y-67305193D01*
X149527340Y-67333027D01*
X149366557Y-67361522D01*
X149362941Y-67362624D01*
X149362933Y-67362626D01*
X149057789Y-67455627D01*
X149054167Y-67456731D01*
X148755477Y-67588781D01*
X148730041Y-67603914D01*
X148478074Y-67753817D01*
X148478068Y-67753821D01*
X148474814Y-67755757D01*
X148471812Y-67758073D01*
X148364031Y-67841226D01*
X148216244Y-67955243D01*
X147983513Y-68184347D01*
X147981149Y-68187314D01*
X147981146Y-68187317D01*
X147789952Y-68427251D01*
X147779991Y-68439751D01*
X147608626Y-68717757D01*
X147471902Y-69014336D01*
X147470741Y-69017940D01*
X147470741Y-69017941D01*
X147462196Y-69044477D01*
X147371797Y-69325192D01*
X147371079Y-69328903D01*
X147371078Y-69328907D01*
X147310482Y-69642105D01*
X147310481Y-69642114D01*
X147309763Y-69645824D01*
X147309496Y-69649600D01*
X147309495Y-69649605D01*
X147299811Y-69786379D01*
X147286698Y-69971585D01*
X135911410Y-69971585D01*
X136231387Y-69744609D01*
X136235570Y-69741767D01*
X137055382Y-69208356D01*
X137059676Y-69205683D01*
X137144538Y-69155196D01*
X137661206Y-68847811D01*
X137900210Y-68705619D01*
X137904608Y-68703121D01*
X138764522Y-68237197D01*
X138769016Y-68234877D01*
X139646975Y-67803819D01*
X139651559Y-67801682D01*
X139723478Y-67769887D01*
X140546086Y-67406215D01*
X140550724Y-67404275D01*
X141300129Y-67108321D01*
X141460416Y-67045021D01*
X141465156Y-67043258D01*
X141824578Y-66917742D01*
X142388553Y-66720793D01*
X142393267Y-66719251D01*
X143328922Y-66434085D01*
X143333741Y-66432722D01*
X143541772Y-66378340D01*
X144280037Y-66185348D01*
X144284932Y-66184174D01*
X144618067Y-66111234D01*
X145240325Y-65974991D01*
X145245286Y-65974008D01*
X145979457Y-65843893D01*
X146208363Y-65803325D01*
X146213343Y-65802545D01*
X147182465Y-65670653D01*
X147187479Y-65670074D01*
X148161090Y-65577183D01*
X148166119Y-65576805D01*
X149142744Y-65523057D01*
X149147770Y-65522882D01*
X149624389Y-65515811D01*
X150125698Y-65508374D01*
X150130755Y-65508400D01*
G37*
%TD.AperFunction*%
%TD*%
M02*
